<?xml version="1.0" encoding="UTF-8" standalone="no"?>
<!-- Created with Inkscape (http://www.inkscape.org/) -->

<svg
   width="112.47266mm"
   height="103.8009mm"
   viewBox="0 0 112.47266 103.8009"
   version="1.1"
   id="svg1"
   xml:space="preserve"
   inkscape:version="1.3.2 (091e20ef0f, 2023-11-25, custom)"
   sodipodi:docname="logo.svg"
   xmlns:inkscape="http://www.inkscape.org/namespaces/inkscape"
   xmlns:sodipodi="http://sodipodi.sourceforge.net/DTD/sodipodi-0.dtd"
   xmlns="http://www.w3.org/2000/svg"
   xmlns:svg="http://www.w3.org/2000/svg"><sodipodi:namedview
     id="namedview1"
     pagecolor="#ffffff"
     bordercolor="#000000"
     borderopacity="0.25"
     inkscape:showpageshadow="2"
     inkscape:pageopacity="0.0"
     inkscape:pagecheckerboard="0"
     inkscape:deskcolor="#d1d1d1"
     inkscape:document-units="mm"
     inkscape:zoom="1.2115433"
     inkscape:cx="185.71354"
     inkscape:cy="216.2531"
     inkscape:window-width="1440"
     inkscape:window-height="831"
     inkscape:window-x="0"
     inkscape:window-y="0"
     inkscape:window-maximized="1"
     inkscape:current-layer="layer1" /><defs
     id="defs1" /><g
     inkscape:label="Calque 1"
     inkscape:groupmode="layer"
     id="layer1"
     transform="translate(-87.603054,-68.79404)"><path
       style="fill:#413d05;stroke-width:0;stroke:none;stroke-opacity:1;stroke-dasharray:none;fill-opacity:1"
       d="m 140.1479,169.4336 c -1.81053,-1.73873 -4.75299,-4.56377 -6.5388,-6.27786 -1.78581,-1.7141 -4.17753,-4.03553 -5.31493,-5.15872 l -2.068,-2.04217 -0.85994,0.82508 c -0.47296,0.4538 -2.39605,2.3435 -4.27352,4.19934 -3.88445,3.83972 -3.6589,3.62742 -3.2983,3.10453 0.53473,-0.77538 6.15795,-11.63818 6.10572,-11.79487 -0.0636,-0.19077 -2.44929,-2.25811 -2.607,-2.25911 -0.24798,-0.001 -1.34708,0.97465 -6.01964,5.34662 -0.94543,0.88461 -2.00545,1.86253 -2.35561,2.17314 -0.35016,0.31062 -0.66706,0.5934 -0.70422,0.62842 -0.0372,0.035 -0.39854,0.37881 -0.80307,0.76398 l -0.73551,0.70032 0.87602,-1.33697 c 1.33192,-2.03276 3.09164,-4.92197 5.31238,-8.72214 1.10498,-1.89087 2.03159,-3.46331 2.05915,-3.49432 0.0276,-0.031 0.37808,0.26215 0.77893,0.65146 0.78862,0.76591 2.38046,2.10897 4.8763,4.1142 3.20436,2.57448 6.54458,5.53835 13.48781,11.96815 3.76731,3.48872 4.75058,4.38111 5.22651,4.74341 0.16353,0.12449 0.35873,-0.006 1.1502,-0.76733 0.52428,-0.50449 2.26588,-2.09188 3.87021,-3.52754 1.60433,-1.43565 3.63654,-3.26931 4.51601,-4.0748 2.81904,-2.58188 6.01,-5.40676 6.28265,-5.56186 0.20821,-0.11845 0.33764,-0.11279 0.60708,0.0266 0.33951,0.17557 0.36148,0.15898 2.54296,-1.91963 1.21027,-1.15321 2.47988,-2.3098 2.82135,-2.57021 l 0.62086,-0.47347 -0.47865,-0.40186 -0.47866,-0.40186 -0.7027,0.44859 c -1.01348,0.64698 -7.03585,4.79537 -8.08787,5.57116 -0.95659,0.70541 -1.92306,1.52674 -5.09267,4.32784 -2.88562,2.55014 -5.05341,4.52824 -6.3297,5.77584 l -1.1086,1.08366 -2.07467,-2.02954 c -2.48658,-2.4325 -4.7375,-4.49002 -6.72224,-6.14466 -0.80536,-0.67142 -2.26648,-1.91491 -3.24693,-2.76331 -1.61573,-1.39813 -4.49561,-3.76411 -9.04047,-7.42724 -0.91042,-0.73379 -2.30107,-1.90439 -3.09035,-2.60134 l -1.43506,-1.26717 -0.4749,0.32052 c -0.2612,0.17629 -1.73547,1.36329 -3.27618,2.63778 -4.90105,4.05421 -8.19657,6.69787 -12.79673,10.26546 -0.34193,0.26519 -0.29419,0.18518 0.20515,-0.34382 1.93634,-2.05131 6.72529,-7.69429 10.04034,-11.83087 2.17926,-2.71932 2.57399,-3.27974 2.4124,-3.42504 -0.53447,-0.4806 -2.05884,-1.76481 -2.18763,-1.84297 -0.0993,-0.0602 -1.08394,0.38038 -2.54661,1.1396 -1.31162,0.68081 -3.27289,1.69346 -4.35839,2.25033 -3.34512,1.7161 -5.141574,2.67019 -5.507045,2.92479 -0.81478,0.5676 -0.200643,-0.004 2.164625,-2.01456 4.60727,-3.91644 5.94575,-5.07402 6.78022,-5.86391 l 0.82777,-0.78358 -1.0823,-1.01132 c -1.43319,-1.33917 -7.09184,-6.4023 -8.853257,-7.92152 -2.061293,-1.77787 -3.195256,-2.79155 -6.984982,-6.24405 -1.88337,-1.71578 -3.68307,-3.35125 -3.999333,-3.63438 l -0.575024,-0.51477 2.598293,-2.03854 c 2.623078,-2.05799 3.252574,-2.54765 10.620123,-8.26105 4.60782,-3.57328 5.52134,-4.30102 5.53165,-4.40665 0.004,-0.0408 -0.17899,-0.13594 -0.40659,-0.21148 -0.22761,-0.0755 -1.58846,-0.62148 -3.0241,-1.21321 -1.43566,-0.59173 -2.83948,-1.150536 -3.119604,-1.241796 -1.157117,-0.376958 0.027,-0.208073 4.847194,0.691336 2.79653,0.52182 6.00137,1.09896 7.12188,1.28254 1.12051,0.18359 2.19486,0.38525 2.38745,0.44814 0.49531,0.16176 0.43905,-0.008 -0.26061,-0.78528 -0.33592,-0.37331 -1.41028,-1.622659 -2.38745,-2.776325 -0.97717,-1.153666 -2.80806,-3.21418 -4.06863,-4.578922 -1.26057,-1.364737 -2.23465,-2.446237 -2.16462,-2.403331 0.56873,0.348441 13.73201,2.936965 13.78884,2.711533 0.0717,-0.284336 -2.36694,-6.414268 -3.79119,-9.529927 -0.21955,-0.480266 -0.38119,-0.891196 -0.35921,-0.913178 0.057,-0.05706 5.74773,2.482275 7.4632,3.33028 0.79199,0.391501 1.4666,0.685201 1.49913,0.652668 0.0325,-0.03253 0.31932,-0.96981 0.6373,-2.082836 1.27473,-4.461975 2.55044,-8.44763 2.77609,-8.673291 0.0185,-0.0185 1.74657,1.656316 3.84016,3.721812 2.09358,2.065494 3.83678,3.755245 3.87378,3.755 0.037,-2.45e-4 0.20275,-0.587558 0.36833,-1.305139 0.77248,-3.347522 1.98693,-6.091853 4.07093,-9.199192 1.41083,-2.103613 3.89368,-5.297934 4.00278,-5.149799 0.0229,0.03112 0.36011,0.429016 0.7493,0.884224 3.89705,4.557994 6.44172,8.704845 7.95334,12.960909 0.12961,0.364907 0.26517,0.662754 0.30126,0.661882 0.0694,-0.0017 1.4764,-1.546387 4.46379,-4.900644 2.29075,-2.572065 2.26597,-2.546096 2.34959,-2.462475 0.0899,0.08988 1.779,6.012862 2.68127,9.401993 0.38221,1.435653 0.74895,2.735288 0.81497,2.888079 0.11756,0.272037 0.14747,0.262525 1.44121,-0.45836 1.53832,-0.857166 7.02506,-3.703025 7.13934,-3.703025 0.0427,0 0.0155,0.157572 -0.0604,0.350159 -0.61084,1.548191 -3.62409,10.735722 -3.50695,10.692853 1.15902,-0.424174 12.09592,-3.275844 12.5637,-3.275844 0.26471,0 0.25985,0.02105 -0.11038,0.47749 -0.21302,0.262619 -1.25133,1.537518 -2.30736,2.833105 -5.63471,6.912911 -6.03309,7.424751 -5.72036,7.349391 0.16947,-0.0409 1.626,-0.31307 3.23673,-0.60497 1.61073,-0.29188 4.64345,-0.89675 6.73937,-1.34415 2.09593,-0.44739 3.8316,-0.792619 3.85704,-0.767176 0.0255,0.02546 -0.19964,0.143981 -0.50018,0.263426 -1.22204,0.48565 -5.82836,3.17084 -5.83005,3.39854 -0.001,0.16414 3.55895,3.1465 9.85783,8.25792 1.59657,1.29559 4.34966,3.53024 6.11798,4.96589 1.76832,1.43566 3.48093,2.79532 3.80581,3.02148 0.32487,0.22616 0.59068,0.46516 0.59068,0.53111 0,0.15164 -3.9448,3.71521 -7.05828,6.37616 -0.92521,0.79074 -5.55092,4.86389 -7.37826,6.4969 -0.97957,0.8754 -2.67301,2.38767 -3.7632,3.3606 -1.0902,0.97294 -1.99882,1.81076 -2.01918,1.86184 -0.0204,0.0511 1.06832,0.97101 2.41928,2.0443 3.07501,2.44298 4.80518,3.87763 4.55725,3.77885 -0.27773,-0.11067 -4.95991,-2.31461 -8.24235,-3.87977 l -2.83081,-1.3498 -0.79812,0.61479 c -0.43896,0.33813 -0.94802,0.75186 -1.13123,0.9194 l -0.33312,0.30462 1.54276,2.07207 c 0.84851,1.13965 2.32986,3.15606 3.29188,4.48092 2.23196,3.07377 4.41597,5.91501 5.66884,7.37472 0.54096,0.63029 0.8058,1.00273 0.58852,0.82765 -1.68833,-1.36039 -8.49185,-7.21838 -11.34506,-9.76836 -1.27597,-1.14036 -2.39329,-2.07288 -2.48295,-2.07226 -0.0897,4.9e-4 -0.48591,0.27756 -0.88057,0.61541 -0.39465,0.33784 -0.87316,0.72762 -1.06335,0.86616 l -0.34581,0.2519 0.90391,1.80437 c 0.9231,1.8427 3.65446,6.99033 3.83122,7.22047 0.0538,0.07 0.51636,0.90087 1.02795,1.8463 0.51158,0.94542 1.12833,2.0341 1.37053,2.41928 l 0.44039,0.70031 -0.41311,-0.38199 c -0.34632,-0.32023 -4.20199,-4.28714 -8.32057,-8.56064 -0.65591,-0.68059 -1.06698,-1.01547 -1.17222,-0.95499 -0.39245,0.22558 -2.36131,2.02322 -2.42176,2.21116 -0.064,0.19888 0.52201,1.67718 1.53264,3.86655 0.25862,0.56025 1.01432,2.25056 1.67934,3.75625 0.66502,1.50569 1.41463,3.11005 1.66582,3.56526 0.43011,0.77945 0.23567,0.60309 -3.339,-3.02849 -2.08764,-2.12088 -3.90447,-3.91435 -4.0374,-3.98549 -0.34262,-0.18337 -0.15632,-0.34191 -4.50006,3.82958 -5.11206,4.90934 -8.97133,8.6431 -10.96915,10.6124 l -2.31069,2.27769 z m 3.80144,-6.63387 c 0.26557,-0.25933 0.48286,-0.53821 0.48286,-0.61974 0,-0.14688 -0.91694,-0.81873 -1.11741,-0.81873 -0.0573,0 -0.32024,0.22124 -0.58429,0.49164 l -0.48007,0.49164 0.54973,0.46085 c 0.30235,0.25347 0.57596,0.46197 0.60802,0.46334 0.032,0.001 0.27559,-0.20968 0.54116,-0.469 z m 2.95019,-2.69125 c 0.044,-0.0938 -0.0286,-0.30852 -0.16134,-0.47726 l -0.24132,-0.30678 -0.76359,0.56213 c -0.41997,0.30916 -0.80483,0.62885 -0.85525,0.71043 -0.0519,0.084 0.0619,0.30859 0.26269,0.51817 l 0.35435,0.36986 0.66225,-0.60304 c 0.36424,-0.33167 0.69823,-0.67975 0.74221,-0.77351 z m -4.75928,0.41661 c 0,-0.0835 -0.32162,-0.3947 -0.71471,-0.69149 l -0.71471,-0.53961 -0.37321,0.37321 -0.37321,0.37321 0.71466,0.67589 0.71465,0.67589 0.37326,-0.35761 c 0.2053,-0.19669 0.37327,-0.42596 0.37327,-0.50949 z m 4.10051,-2.56992 c 1.40604,-1.103 3.3076,-2.59276 4.22568,-3.31058 0.91809,-0.71781 2.13633,-1.73362 2.7072,-2.25735 1.21706,-1.11657 3.68933,-2.87103 10.30948,-7.31618 6.0806,-4.08288 9.43183,-6.43819 11.69942,-8.22258 1.99662,-1.57117 2.60888,-2.02103 2.65948,-1.95404 0.0813,0.10759 -4.28299,4.14355 -5.26976,4.87334 -0.59527,0.44025 -3.804,2.62335 -7.13052,4.85133 -5.38347,3.60567 -8.03101,5.46546 -9.23146,6.48476 -0.70516,0.59874 -0.0524,0.33054 1.52796,-0.62782 1.11129,-0.6739 3.94879,-2.3377 6.62119,-3.88244 3.7318,-2.15709 5.14661,-3.23374 8.2765,-6.29837 0.98044,-0.95999 2.89995,-2.64126 4.26557,-3.73614 2.38843,-1.91493 3.75829,-3.08856 7.30929,-6.2623 2.30026,-2.05588 4.91889,-4.35083 6.27221,-5.49693 1.87995,-1.59209 4.62678,-4.06139 4.62678,-4.15931 0,-0.0957 -1.98425,-1.88323 -3.50159,-3.1544 -0.80885,-0.67762 -8.59792,-7.32232 -10.44111,-8.9071 -1.61061,-1.38481 -3.11682,-2.60655 -3.21169,-2.60512 -0.0544,9.6e-4 -0.55943,0.44488 -1.12229,0.98681 -1.04452,1.00567 -2.33569,2.57696 -2.11756,2.57696 0.0665,0 0.39719,-0.19042 0.73492,-0.42317 l 0.61405,-0.42316 2.88414,2.49229 c 1.58627,1.37075 4.70562,4.09375 6.93188,6.0511 l 4.04775,3.55882 -0.62435,0.56659 c -0.34339,0.31163 -1.3733,1.20266 -2.28868,1.98006 -0.91539,0.77741 -2.43381,2.10743 -3.37427,2.9556 -0.94046,0.84818 -3.08509,2.73041 -4.76586,4.18274 -1.68076,1.45234 -3.13655,2.71759 -3.2351,2.81167 -0.15282,0.1459 -0.11229,0.23793 0.27549,0.62572 l 0.45466,0.45465 -4.54107,3.50536 c -4.5192,3.48848 -7.47021,5.52759 -16.57426,11.45254 -4.00416,2.60593 -9.05875,6.20808 -11.12488,7.92813 l -0.62056,0.51662 -1.78872,-1.347 c -1.84248,-1.38748 -4.58657,-3.2712 -10.33987,-7.09796 -4.85945,-3.23223 -7.59094,-5.10098 -9.4373,-6.45655 -0.90225,-0.66242 -2.35669,-1.71173 -3.23209,-2.33179 -2.12932,-1.50825 -4.12163,-3.01306 -6.55361,-4.95 -1.10821,-0.88264 -2.12396,-1.60479 -2.25722,-1.60479 -0.13326,0 -0.4123,0.0879 -0.6201,0.19537 -0.31,0.16031 -0.35532,0.23738 -0.25255,0.42941 0.31584,0.59015 4.17808,3.60505 9.83247,7.67533 5.86325,4.22062 6.42995,4.62061 10.41945,7.35431 6.96018,4.76928 8.41084,5.79033 9.84388,6.92869 1.49699,1.18917 4.41901,3.39234 4.49918,3.39234 0.0338,0 1.2118,-0.90246 2.61784,-2.00546 z m 32.36487,-25.18892 c 0.34199,-0.31469 0.65341,-0.54055 0.69204,-0.50193 0.11068,0.11068 -0.89747,1.08478 -1.11687,1.07915 -0.11802,-0.003 0.0523,-0.23442 0.42483,-0.57722 z m 1.60647,-1.31449 c 0,-0.12537 0.84869,-0.90451 0.98525,-0.90451 0.0468,0 -0.13873,0.2292 -0.41227,0.50932 -0.53071,0.54351 -0.57298,0.57266 -0.57298,0.39519 z m 2.11849,-1.90378 c -0.11469,-0.12673 -0.20853,-0.26762 -0.20853,-0.31309 0,-0.0455 0.38068,-0.39668 0.84597,-0.78047 0.69125,-0.57018 0.88919,-0.67466 1.0823,-0.57131 0.12999,0.0696 0.23635,0.17587 0.23635,0.23623 0,0.0603 -0.3932,0.45834 -0.87378,0.8844 -0.83258,0.73813 -0.88362,0.7638 -1.08231,0.54424 z m 2.60864,-2.40024 c -0.151,-0.16308 -0.0815,-0.28393 0.50497,-0.87775 0.37404,-0.37875 0.71405,-0.68863 0.75558,-0.68863 0.0415,0 0.18674,0.085 0.32268,0.18889 0.23733,0.18137 0.22184,0.21182 -0.38949,0.76552 -0.85737,0.77655 -0.98215,0.84052 -1.19374,0.61197 z m 3.2947,-2.96193 c 0.74608,-0.65568 0.9569,-0.65904 0.31833,-0.005 -0.27354,0.28013 -0.58599,0.50917 -0.69433,0.50898 -0.11462,-2e-4 0.0426,-0.21092 0.376,-0.5039 z m 1.76971,-1.35762 c -0.1446,-0.17423 -0.1154,-0.24144 0.20667,-0.47566 0.20629,-0.15002 0.73649,-0.57918 1.17823,-0.95369 0.94293,-0.79942 0.99187,-0.65831 -0.70026,-2.0193 -0.64958,-0.52246 -1.18105,-0.99149 -1.18105,-1.0423 0,-0.0508 0.0829,-0.20361 0.18424,-0.33955 0.1748,-0.23451 0.2563,-0.17556 1.59163,1.1513 0.77407,0.76916 1.4074,1.44186 1.4074,1.49489 0,0.10271 -1.63497,1.69225 -2.18831,2.12751 -0.29964,0.23569 -0.34572,0.24094 -0.49855,0.0568 z m -2.49831,-6.07741 c -0.41728,-0.39426 -0.56235,-0.61692 -0.50288,-0.77188 0.0712,-0.18565 0.11842,-0.19314 0.31974,-0.0507 0.66488,0.47032 1.18296,1.02255 1.11804,1.19174 -0.11422,0.29765 -0.31172,0.21967 -0.9349,-0.36914 z m -1.15749,-1.36382 c 0.0307,-0.0919 0.13091,-0.1922 0.22283,-0.22283 0.0955,-0.0319 0.14325,0.0159 0.11142,0.11141 -0.0307,0.0919 -0.13092,0.19219 -0.22283,0.22283 -0.0955,0.0318 -0.14325,-0.0159 -0.11142,-0.11141 z m -1.52188,-1.08299 c -0.26159,-0.24986 -0.36102,-0.39837 -0.22096,-0.33002 0.27766,0.1355 0.92648,0.78431 0.78431,0.78431 -0.0482,0 -0.30176,-0.20443 -0.56335,-0.45429 z m -1.84442,-1.51341 c -0.4843,-0.55083 -0.5653,-0.70624 -0.36809,-0.70624 0.19833,0 1.29387,1.03871 1.22059,1.15727 -0.13515,0.21869 -0.37545,0.0916 -0.8525,-0.45103 z m -2.17523,-2.00077 c -0.40273,-0.34424 -0.56807,-0.56517 -0.48508,-0.64816 0.083,-0.083 0.24861,-0.0385 0.48588,0.13066 0.5629,0.40122 0.86649,0.78346 0.73036,0.91958 -0.0753,0.0754 -0.34808,-0.0746 -0.73116,-0.40208 z m -2.6315,-1.90241 c -0.45521,-0.3549 -0.84501,-0.72014 -0.86622,-0.81165 -0.0375,-0.16188 0.60015,-0.70264 0.82858,-0.70264 0.0627,0 0.18241,0.0684 0.26596,0.15192 0.11769,0.11769 0.066,0.18805 -0.22919,0.31219 -0.50239,0.21124 -0.48089,0.44556 0.0816,0.88958 0.88509,0.69864 1.00081,0.80527 0.87422,0.80556 -0.07,1.7e-4 -0.49977,-0.29006 -0.95498,-0.64496 z m -29.11113,49.50073 0.87522,-0.7985 -0.21298,-0.41188 -0.21299,-0.41188 -0.47125,0.37362 c -0.25918,0.20549 -0.7269,0.60068 -1.03939,0.87822 l -0.56814,0.5046 0.22092,0.33718 c 0.12151,0.18545 0.29123,0.33492 0.37715,0.33216 0.0859,-0.003 0.55008,-0.36434 1.03146,-0.80352 z m -9.77462,0.45837 c 0.093,-0.12255 0.17097,-0.28951 0.1732,-0.37102 0.004,-0.15993 -1.54576,-1.44344 -1.74329,-1.44344 -0.0658,0 -0.1943,0.13961 -0.28562,0.31024 -0.18785,0.351 -0.2014,0.33084 0.81327,1.20904 0.66904,0.57904 0.79902,0.61585 1.04244,0.29518 z m 12.31891,-2.65706 c 0.69735,-0.64204 0.84605,-0.84905 0.84605,-1.17781 0,-0.21938 -0.051,-0.39887 -0.11332,-0.39887 -0.15343,0 -1.54666,1.04037 -1.84526,1.37793 -0.20996,0.23734 -0.21962,0.31916 -0.0781,0.66091 0.0889,0.21452 0.20273,0.37356 0.25306,0.35341 0.0503,-0.0202 0.47221,-0.38715 0.93754,-0.81557 z m -15.47385,-0.4581 c -0.23324,-0.19574 -0.67888,-0.52847 -0.99033,-0.7394 -0.50922,-0.34489 -0.58597,-0.36382 -0.76183,-0.18797 -0.26888,0.26889 -0.1074,0.49758 0.88635,1.25517 l 0.8116,0.61873 0.23914,-0.29532 c 0.23816,-0.29412 0.2374,-0.29679 -0.18493,-0.65121 z m 7.23797,-0.90324 c -0.12785,-0.0834 -0.93003,-0.66648 -1.78262,-1.2957 -0.8526,-0.62922 -3.55197,-2.42228 -5.9986,-3.98457 -4.54673,-2.90331 -11.48643,-7.62151 -14.90583,-10.13425 -4.51644,-3.31891 -5.97024,-4.41164 -7.85662,-5.90531 -2.18987,-1.73399 -2.17773,-1.71269 -1.3141,-2.30446 0.2258,-0.15472 0.53664,-0.41554 0.69076,-0.57959 l 0.28023,-0.29829 -1.31168,-1.21269 c -0.72143,-0.66699 -1.76804,-1.599 -2.3258,-2.07115 -0.55776,-0.47215 -2.30537,-2.01908 -3.88358,-3.43763 -2.55864,-2.29979 -6.400598,-5.64711 -7.262382,-6.32738 l -0.318327,-0.25128 0.509326,-0.43869 c 0.280125,-0.24128 0.910413,-0.76655 1.400633,-1.16727 3.13111,-2.55943 8.46749,-7.05858 8.46749,-7.13902 0,-0.0528 -0.16483,-0.254 -0.36628,-0.447 l -0.36627,-0.35091 -0.71424,0.58175 c -0.39283,0.31996 -0.75351,0.58175 -0.80151,0.58175 -0.048,0 -0.19205,0.0948 -0.32012,0.21073 -0.14948,0.13529 -0.23286,0.1559 -0.23286,0.0576 0,-0.16219 0.29153,-0.45667 1.35801,-1.37177 l 0.65768,-0.56432 0.77561,0.61106 0.77562,0.61106 -0.36362,0.31833 c -0.2,0.17508 -1.33433,1.20645 -2.52075,2.29195 -2.13486,1.95325 -5.18129,4.70492 -6.017506,5.43527 l -0.432735,0.37795 0.814731,0.62086 c 0.44809,0.34148 1.70285,1.3715 2.78834,2.28894 1.0855,0.91745 2.86176,2.40729 3.94725,3.31076 1.0855,0.90347 3.18752,2.66233 4.67116,3.90858 1.48364,1.24625 2.73785,2.26591 2.78715,2.26591 0.0493,0 0.4617,-0.32667 0.91647,-0.72593 0.77141,-0.67726 0.80864,-0.73405 0.55527,-0.84711 -0.14936,-0.0666 -0.27157,-0.16449 -0.27157,-0.21742 0,-0.0529 0.38677,-0.39827 0.85949,-0.7674 0.98015,-0.76537 2.70577,-2.3974 2.70577,-2.55903 0,-0.22489 -1.3006,0.56552 -2.80599,1.70528 -0.85961,0.65083 -1.6305,1.23436 -1.71307,1.29675 -0.14924,0.11274 -0.9781,-0.54713 -4.14978,-3.3037 -2.28895,-1.98938 -7.67957,-6.59929 -8.11712,-6.94155 l -0.41852,-0.32736 1.49549,-1.26427 c 2.5882,-2.18804 3.38746,-2.87604 4.63123,-3.98653 1.70173,-1.51938 3.05595,-2.85082 3.05584,-3.00443 -5e-5,-0.0718 -0.65319,-0.8181 -1.45141,-1.65848 -1.26452,-1.33131 -1.48171,-1.50987 -1.68746,-1.38735 -0.12988,0.0773 -1.4117,1.08008 -2.8485,2.22829 -1.4368,1.14821 -3.27018,2.59088 -4.07417,3.20593 -3.219435,2.46285 -4.260767,3.28526 -6.225059,4.91633 -1.126904,0.93574 -2.048916,1.74116 -2.048916,1.78984 0,0.10685 2.80993,2.68527 5.849916,5.36795 2.581659,2.27823 6.241129,5.61204 8.161049,7.43479 1.69009,1.60457 3.88574,3.61211 4.96129,4.53627 1.13834,0.97809 6.477,4.96457 9.10414,6.79823 1.19054,0.83096 2.56571,1.80491 3.05594,2.16434 0.49022,0.35943 2.69622,1.86339 4.90223,3.34215 7.33799,4.91891 10.01749,6.48456 13.11505,7.66322 1.33742,0.5089 2.11626,0.67781 1.61383,0.34998 z m -34.68875,-25.37439 c -0.44835,-0.35336 -0.84765,-0.9335 -0.50484,-0.73351 0.26043,0.15194 1.11045,0.91399 1.11045,0.99554 0,0.14201 -0.20606,0.0529 -0.60561,-0.26203 z m -3.01815,-2.52002 c -0.86122,-0.7828 -0.87811,-0.80978 -0.60014,-0.95855 0.24902,-0.13326 0.34721,-0.10419 0.75883,0.22467 0.26004,0.20776 0.66514,0.57806 0.90022,0.82289 0.41413,0.43131 0.41934,0.44946 0.16753,0.58422 -0.14293,0.0765 -0.27797,0.13754 -0.30008,0.13566 -0.0221,-0.002 -0.43897,-0.36588 -0.92636,-0.80889 z m -2.72868,-2.27546 c -0.71035,-0.60825 -0.74327,-0.67367 -0.42485,-0.84408 0.18083,-0.0968 0.35889,0.006 0.89253,0.51503 0.6341,0.60489 0.7387,0.87021 0.34308,0.87021 -0.0983,0 -0.46317,-0.24352 -0.81076,-0.54116 z m -1.96912,-2.06304 c -0.42441,-0.39333 -0.45365,-0.6484 -0.0504,-0.43986 0.43253,0.22371 0.73439,0.51814 0.65797,0.64179 -0.1094,0.17701 -0.24857,0.13075 -0.60754,-0.20193 z m -2.463769,-2.03136 c -0.405949,-0.37858 -0.700435,-0.72659 -0.654423,-0.77338 0.211918,-0.21545 1.871002,1.05599 1.712536,1.3124 -0.15309,0.24771 -0.288413,0.17877 -1.058113,-0.53902 z m -3.004196,-2.97782 c -0.259326,-0.26557 -0.4715,-0.51876 -0.4715,-0.56266 0,-0.0439 0.834478,-0.82754 1.85439,-1.74145 1.656547,-1.48436 1.880733,-1.64519 2.101289,-1.50745 0.135795,0.0848 0.232425,0.19181 0.214734,0.2378 -0.01771,0.046 -0.557884,0.48899 -1.200424,0.98445 -0.642541,0.49545 -1.502023,1.21255 -1.90996,1.59353 l -0.741701,0.69272 0.373984,0.39296 c 0.205686,0.21613 0.346239,0.39296 0.31233,0.39296 -0.03388,0 -0.273816,-0.21728 -0.533142,-0.48286 z m 5.054355,-5.01342 c -0.0536,-0.0867 0.0623,-0.27454 0.27898,-0.45195 0.60143,-0.49249 0.77314,-0.56012 0.93301,-0.3675 0.112,0.13496 0.0443,0.25978 -0.30939,0.57031 -0.47745,0.41921 -0.75085,0.49467 -0.9026,0.24914 z m 2.56532,-1.85634 c -0.0593,-0.15441 0.0239,-0.30946 0.27287,-0.50869 0.39085,-0.31278 0.52203,-0.34141 0.7892,-0.1722 0.13845,0.0877 0.0836,0.19614 -0.25466,0.50364 -0.49431,0.44936 -0.68678,0.49162 -0.80741,0.17725 z m 1.90518,-1.43172 c -0.0446,-0.0722 0.006,-0.0935 0.11981,-0.05 0.22059,0.0846 0.26096,0.17591 0.0778,0.17591 -0.0659,0 -0.15482,-0.0566 -0.1976,-0.12587 z m 40.99955,44.72077 c 1.76901,-0.80719 2.78764,-1.37923 4.64757,-2.60997 1.72824,-1.14361 1.87734,-1.28209 1.13535,-1.05445 -0.85573,0.26252 -1.07197,0.3568 -3.18471,1.38855 -1.84117,0.89913 -2.92303,1.6018 -4.12617,2.67996 -0.61276,0.5491 -0.48967,0.51655 1.52796,-0.40409 z m -12.66939,-0.0977 c 0,-0.16095 -1.45442,-1.33218 -1.65429,-1.33218 -0.19105,0 -0.26491,0.42733 -0.10119,0.58546 0.0901,0.087 0.44687,0.39 0.7928,0.67327 0.47688,0.39051 0.66929,0.48155 0.79581,0.37654 0.0918,-0.0762 0.16687,-0.21256 0.16687,-0.30309 z m 20.75488,-0.18947 c 0,-0.31315 -0.22584,-0.31683 -0.62469,-0.0102 -0.20034,0.15402 -0.27825,0.30881 -0.22512,0.44727 0.0745,0.19412 0.11325,0.1952 0.46553,0.0131 0.23063,-0.11926 0.38428,-0.29924 0.38428,-0.45011 z m -9.30353,-0.81593 1.06828,-1.07386 -2.28073,-0.0403 c -1.25441,-0.0221 -2.30821,-0.0224 -2.34178,-4.6e-4 -0.10952,0.0714 2.12145,2.18846 2.30626,2.18846 0.0988,0 0.66041,-0.48324 1.24797,-1.07386 z m 1.91836,-1.90691 c 1.25436,-0.2241 2.37872,-0.74996 3.62892,-1.69723 1.02812,-0.779 1.81738,-1.53531 1.4643,-1.40317 -0.10505,0.0393 -0.64152,0.25354 -1.19216,0.47605 -1.14337,0.46203 -3.87385,1.18456 -5.33836,1.41262 -1.41921,0.221 -3.17517,0.0871 -4.92923,-0.37595 -1.7783,-0.46942 -3.90674,-1.27535 -4.77227,-1.80703 l -0.63928,-0.3927 1.01865,1.03676 c 1.76215,1.79349 3.17585,2.58439 4.99895,2.79672 1.41946,0.16532 4.72526,0.13888 5.76048,-0.046 z m 0.38199,-2.0658 c 0.76235,-0.1899 1.77465,-0.58227 2.73761,-1.06108 1.94961,-0.96941 2.67427,-1.50202 2.78294,-2.04536 0.10156,-0.50778 0.10841,-2.03344 0.009,-2.03344 -0.0401,0 -0.34302,0.25579 -0.67322,0.56843 -0.3302,0.31263 -0.92923,0.80392 -1.33118,1.09175 -0.91647,0.65627 -3.11005,1.70699 -4.03461,1.93256 -0.64223,0.15669 -0.72355,0.21808 -0.98037,0.74017 -0.15403,0.31313 -0.31852,0.72972 -0.36554,0.92576 -0.0975,0.40654 -0.30772,0.42 1.85524,-0.11879 z m -5.6431,0.11256 c -0.0306,-0.0525 -0.15015,-0.42497 -0.26573,-0.82765 -0.11558,-0.40268 -0.28017,-0.7322 -0.36575,-0.73225 -0.3211,-2.1e-4 -1.80261,-0.78773 -2.93066,-1.55784 -0.64264,-0.43872 -1.73235,-1.34957 -2.42157,-2.02409 -0.87862,-0.85989 -1.27426,-1.17134 -1.32385,-1.04212 -0.0389,0.10137 -0.0306,0.67874 0.0184,1.28305 l 0.0892,1.09876 0.83667,0.76666 c 1.63275,1.49611 2.71852,2.17712 4.40978,2.76585 0.96454,0.33576 2.08178,0.48997 1.95353,0.26963 z m 2.75315,-0.71655 0.18992,-0.55738 -1.03744,-0.0629 c -0.57058,-0.0346 -1.04905,-0.0539 -1.06326,-0.0428 -0.0142,0.0111 0.0713,0.2902 0.18999,0.62031 l 0.21583,0.60021 h 0.65752 0.65752 z m 1.30125,-1.92963 c 2.8564,-0.49812 6.22457,-2.57273 7.36702,-4.53769 0.29932,-0.51481 0.34058,-0.71002 0.30777,-1.45622 l -0.0379,-0.86173 -0.47852,0.77678 c -1.03099,1.67357 -3.31293,3.28075 -6.00063,4.22628 -1.23027,0.43279 -1.36507,0.45317 -3.00697,0.45456 -1.66778,0.001 -1.74823,-0.0112 -2.70196,-0.42267 -1.76789,-0.76276 -3.51541,-2.06385 -5.80043,-4.31861 l -1.33946,-1.32173 0.0758,0.63988 c 0.19371,1.63561 0.80069,2.51195 2.92989,4.2301 2.96503,2.39261 5.49511,3.14739 8.6854,2.59105 z m 9.27608,-0.48724 c 8.15581,-4.98795 12.1224,-7.59763 16.00921,-10.53268 l 1.50015,-1.13281 -0.78846,-1.06459 c -0.43365,-0.58552 -1.56199,-2.19466 -2.50741,-3.57586 -2.7657,-4.04047 -3.59337,-5.1057 -3.95607,-5.09153 -0.17023,0.007 -1.25494,0.10621 -2.41047,0.22126 -1.15552,0.11504 -2.3588,0.2242 -2.67394,0.24257 -0.54026,0.0315 -0.5739,0.0552 -0.58893,0.4154 -0.009,0.21009 0.0135,0.57078 0.0494,0.80152 l 0.0654,0.41954 2.70014,-0.0882 2.70014,-0.0882 0.0835,0.60954 c 0.046,0.33525 0.0827,1.30346 0.0817,2.15158 -0.003,2.58103 -0.43113,3.83148 -1.77399,5.18323 -1.21071,1.21872 -2.99995,2.0226 -4.97265,2.23415 l -0.70032,0.0751 0.0183,-5.75297 0.0183,-5.75296 -0.27296,-0.10309 c -0.15013,-0.0567 -0.51156,-0.14311 -0.80319,-0.19204 l -0.53022,-0.089 -0.0154,7.13986 -0.0154,7.13986 0.6093,-9.6e-4 c 1.09904,-10e-4 3.06046,-0.36581 4.07256,-0.75673 1.48321,-0.57288 2.54219,-1.24142 3.53996,-2.23479 1.57111,-1.56419 2.32213,-3.43248 2.44753,-6.08865 l 0.071,-1.50475 0.59639,1.12276 c 0.32801,0.61751 1.06948,1.85132 1.64771,2.7418 0.57823,0.89047 1.01834,1.67242 0.97802,1.73765 -0.11345,0.18357 -4.6541,3.41934 -6.50472,4.63542 -0.91041,0.59825 -3.11642,1.98036 -4.90223,3.07136 l -3.24693,1.98364 -0.0783,-2.00333 c -0.043,-1.10182 -0.086,-4.42419 -0.0955,-7.38303 -0.01,-2.95885 -0.0602,-5.37711 -0.11274,-5.37391 -0.0525,0.003 -0.36767,0.36739 -0.70032,0.80932 l -0.60482,0.8035 v 7.91283 c 0,4.35207 0.0357,7.91284 0.0794,7.91284 0.0436,0 0.48772,-0.24974 0.98681,-0.55497 z m -21.79723,-9.23277 -0.0489,-7.68679 -0.6878,0.67925 -0.6878,0.67926 v 5.64841 5.64842 l -0.35016,-0.27363 c -0.19259,-0.15049 -1.41018,-0.97333 -2.70578,-1.82853 -2.91845,-1.92643 -4.56702,-3.0597 -6.0482,-4.15769 -1.21058,-0.89741 -4.49303,-3.85426 -4.60628,-4.14937 -0.0378,-0.0986 0.4393,-0.78095 1.10272,-1.57687 0.64319,-0.77165 1.18258,-1.403 1.19865,-1.403 0.0161,0 0.005,0.33927 -0.0253,0.75394 -0.03,0.41467 0.0152,1.24499 0.10036,1.84516 0.38985,2.74634 2.08141,4.46001 5.09481,5.16139 1.53208,0.3566 4.5311,0.898 4.97438,0.898 h 0.37351 l -4.8e-4,-4.8704 c -3.6e-4,-2.67872 -0.0376,-5.428 -0.0827,-6.10952 -0.0776,-1.17165 -0.0966,-1.23615 -0.3495,-1.18475 -0.1471,0.0299 -0.53961,0.0897 -0.87227,0.13277 l -0.60482,0.0784 0.0127,3.52562 c 0.007,1.9391 0.05,4.08433 0.0955,4.76719 0.0595,0.89259 0.042,1.24153 -0.0624,1.24147 -0.36787,-2.2e-4 -2.35752,-0.41881 -3.10183,-0.65258 -1.63466,-0.5134 -2.99571,-1.51776 -3.62705,-2.67651 -0.47079,-0.86408 -0.59513,-2.46578 -0.27632,-3.55936 0.15057,-0.51647 1.2986,-2.5755 1.68893,-3.02916 0.0234,-0.0272 0.66011,0.0705 1.41496,0.21693 3.01326,0.5847 3.60702,0.47689 1.95316,-0.35465 -1.01734,-0.51151 -2.20992,-1.52098 -2.71228,-2.29583 l -0.20638,-0.31832 -1.73897,1.78263 c -1.66442,1.70619 -3.82646,4.04967 -5.97907,6.48082 -0.97348,1.09944 -0.99572,1.13896 -0.7524,1.33697 0.13791,0.11222 0.90725,0.78058 1.70965,1.48525 2.94926,2.59003 5.42818,4.46498 9.9264,7.50792 1.64575,1.11331 3.64649,2.4704 4.44609,3.01576 0.79961,0.54536 1.46058,0.9773 1.46884,0.95987 0.008,-0.0174 -0.007,-3.49076 -0.0339,-7.71849 z m 11.35258,3.67587 c 0.46128,-1.50568 0.97769,-3.14488 1.14759,-3.64266 l 0.3089,-0.90506 -1.1518,-0.0817 c -1.54625,-0.10976 -3.14996,-0.10349 -3.14996,0.0123 0,0.11726 1.6489,7.28392 1.73613,7.54579 0.0566,0.16977 0.0751,0.16977 0.16704,0 0.0569,-0.10506 0.48083,-1.42293 0.9421,-2.92861 z m 4.41572,2.22 c 0.15539,-0.40872 0.16756,-8.84119 0.0127,-8.84119 -0.0613,0 -0.29047,0.0358 -0.50932,0.0796 l -0.39791,0.0796 v 4.50432 4.50433 h 0.38515 c 0.29626,0 0.41379,-0.0754 0.50932,-0.32663 z m -9.17095,-4.11954 c 0,-2.37536 0.0348,-4.40947 0.0773,-4.52024 0.0643,-0.16746 -0.0323,-0.20141 -0.57299,-0.20141 h -0.65028 v 4.17757 c 0,4.37848 0.003,4.40418 0.57299,4.71587 0.58269,0.31871 0.57299,0.38929 0.57299,-4.17179 z m 22.80733,-4.72939 c 0.8852,-0.45159 1.76747,-1.86187 1.76747,-2.82522 0,-1.07639 -1.20654,-2.57901 -2.31892,-2.88798 -0.78663,-0.21849 -1.57344,-0.0929 -2.2985,0.36694 -0.44546,0.2825 -0.66961,0.55555 -0.98954,1.20542 -0.37395,0.7596 -0.40596,0.91352 -0.33372,1.60464 0.10023,0.95899 0.4362,1.62607 1.10897,2.20194 0.87304,0.74729 2.01127,0.87145 3.06424,0.33426 z m -2.15217,-1.46429 c -0.39267,-0.27504 -0.66426,-0.84716 -0.66426,-1.39932 0,-0.35872 0.0987,-0.56345 0.43292,-0.89764 0.37036,-0.37036 0.52,-0.43292 1.03544,-0.43292 0.52594,0 0.65703,0.0578 1.03138,0.45472 0.35686,0.37838 0.42886,0.55154 0.42886,1.03138 0,0.48603 -0.068,0.64469 -0.43292,1.00958 -0.36048,0.36048 -0.5262,0.43292 -0.99031,0.43292 -0.30657,0 -0.68507,-0.0894 -0.84111,-0.19872 z m -14.08102,0.4 c 1.22823,-0.3916 2.69459,-1.31087 3.82969,-2.40084 1.02453,-0.9838 1.59583,-1.73155 2.63646,-3.45073 l 0.83817,-1.3847 -0.73187,-0.78627 c -1.21157,-1.30162 -2.87238,-3.25904 -3.6589,-4.31238 -0.67581,-0.90507 -0.83142,-1.03563 -1.77185,-1.48652 -0.94304,-0.45213 -1.03441,-0.47372 -1.07117,-0.25311 -0.0591,0.35477 0.28312,1.59047 0.81508,2.94306 0.31542,0.80199 0.47278,1.41391 0.4831,1.87861 l 0.0153,0.68919 -0.6293,0.32945 c -0.34612,0.18121 -0.6461,0.38676 -0.66663,0.45679 -0.0205,0.07 0.37726,0.57447 0.88396,1.12098 0.7892,0.85117 0.99432,1.00335 1.43061,1.06133 0.87078,0.11572 0.87494,0.12236 0.45712,0.72964 -0.59873,0.87023 -1.98412,2.071 -2.66209,2.30736 -0.79192,0.27607 -3.13906,0.38493 -4.40858,0.20446 -1.46679,-0.20851 -2.21529,-0.7319 -3.68143,-2.57428 l -0.46827,-0.58843 0.65005,-0.0625 c 0.61521,-0.0591 0.70723,-0.11933 1.71623,-1.12309 1.16353,-1.15749 1.17097,-1.19725 0.29755,-1.59111 -0.52265,-0.23569 -0.52444,-0.23889 -0.45595,-0.81549 0.0378,-0.31838 0.32996,-1.39359 0.64918,-2.38937 0.31923,-0.99577 0.61868,-2.04986 0.66547,-2.34242 l 0.0851,-0.53192 -0.36942,0.0903 c -0.53449,0.13065 -1.72264,0.68689 -2.00732,0.93974 -0.1343,0.11929 -0.95856,1.06656 -1.83169,2.10507 -0.87313,1.03851 -1.91192,2.24178 -2.30842,2.67395 -1.16734,1.27232 -1.11843,1.12456 -0.6492,1.96109 1.59196,2.83807 4.12116,5.43344 6.18902,6.35092 1.74348,0.77357 3.80774,0.86406 5.73003,0.25118 z m 29.20575,-1.90612 c 0.52524,-0.42505 2.78855,-2.29422 5.02956,-4.1537 2.24102,-1.85949 4.69184,-3.89145 5.44627,-4.51546 1.08009,-0.89338 1.33723,-1.16614 1.20964,-1.28312 -0.0891,-0.0817 -1.25072,-1.05584 -2.58133,-2.16474 -1.3306,-1.10891 -3.42201,-2.8797 -4.64756,-3.9351 -2.51302,-2.16411 -4.25911,-3.63171 -5.06996,-4.26133 l -0.54971,-0.42685 -0.50444,0.49256 c -0.27743,0.27091 -0.48845,0.55615 -0.46892,0.63388 0.0195,0.0777 1.06688,1.05143 2.32745,2.1638 1.26057,1.11237 3.15406,2.79748 4.20775,3.74468 1.05369,0.9472 2.50049,2.23659 3.2151,2.86531 0.71461,0.62871 1.2993,1.18369 1.2993,1.23329 0,0.0496 -0.44407,0.45035 -0.98682,0.89058 -0.54274,0.44022 -1.98954,1.63516 -3.2151,2.65543 -1.22555,1.02026 -3.28831,2.70929 -4.58389,3.7534 -3.70238,2.98372 -3.31943,2.60561 -3.09314,3.0541 0.10688,0.21182 0.31119,0.51297 0.45404,0.66923 l 0.25972,0.2841 0.64853,-0.46362 c 0.35669,-0.255 1.07828,-0.8114 1.60351,-1.23644 z m -48.63714,1.03636 c 0.85276,-0.43132 1.28794,-1.14209 1.36584,-2.23082 0.0728,-1.01695 -0.0722,-1.56555 -0.60985,-2.30774 -0.49735,-0.68657 -1.24543,-1.05748 -2.14941,-1.06571 -0.8135,-0.007 -1.29501,0.20288 -1.87423,0.81851 -1.08498,1.15318 -1.20717,2.78212 -0.30239,4.03113 0.73765,1.01831 2.36755,1.36283 3.57004,0.75463 z m -1.88894,-1.27948 c -0.97543,-0.56426 -1.04315,-1.94696 -0.12283,-2.50808 0.56966,-0.34731 1.14132,-0.32569 1.60035,0.0606 0.7663,0.64481 0.80686,1.55737 0.0988,2.22258 -0.36662,0.34442 -1.17127,0.45924 -1.5763,0.22495 z m 22.3126,-1.81219 c 0.2259,-0.1072 0.60516,-0.35723 0.8428,-0.55562 l 0.43208,-0.36072 -1.14188,-0.0959 c -0.62804,-0.0528 -2.81468,-0.0749 -4.8592,-0.0492 l -3.71732,0.0467 0.34306,0.3663 c 0.79092,0.84449 0.7797,0.84234 4.39839,0.84287 2.6919,3.9e-4 3.36615,-0.035 3.70207,-0.19443 z m 25.83356,-1.11024 c 3.37942,-2.82901 7.45612,-6.41789 7.43447,-6.54484 -0.0257,-0.15057 -2.4934,-2.50959 -6.68054,-6.38627 l -2.37996,-2.20351 -0.32081,0.3768 c -0.17644,0.20723 -0.54262,0.64021 -0.81373,0.96215 l -0.49293,0.58537 0.74759,0.85926 c 0.41117,0.4726 1.70394,1.80596 2.8728,2.96303 l 2.12522,2.10376 -2.5893,1.39362 -2.5893,1.39362 0.70882,0.80737 c 0.93581,1.06589 1.07538,1.13376 1.59152,0.77389 1.07437,-0.74911 4.80465,-3.57268 4.87912,-3.69317 0.0468,-0.0756 -0.98363,-1.20527 -2.31573,-2.53876 -1.81193,-1.8138 -2.36401,-2.43842 -2.2532,-2.54923 0.11081,-0.11081 0.77351,0.47155 2.70467,2.37679 1.40684,1.38796 2.54235,2.56675 2.52336,2.61954 -0.019,0.0528 -0.3319,0.31427 -0.69535,0.58108 -0.36344,0.26681 -1.72583,1.33296 -3.02751,2.36921 l -2.3667,1.88409 -1.42428,-1.3111 c -0.78335,-0.72111 -1.87068,-1.73664 -2.41628,-2.25674 l -0.99201,-0.94563 0.65797,-0.35981 c 0.36189,-0.1979 1.08102,-0.67823 1.59809,-1.06741 l 0.9401,-0.70758 -0.63239,-0.72458 c -0.34782,-0.39851 -0.92814,-1.01107 -1.2896,-1.36122 l -0.65721,-0.63666 -0.5073,0.57299 c -0.27901,0.31514 -0.76476,0.86956 -1.07945,1.23203 l -0.57215,0.65904 0.58039,0.53498 c 0.31921,0.29424 0.58038,0.5728 0.58038,0.61901 0,0.0462 -0.16539,0.0966 -0.36754,0.11204 -0.25862,0.0197 -0.49019,-0.0866 -0.78145,-0.35865 -0.22766,-0.21267 -0.42323,-0.37065 -0.4346,-0.35108 -0.0114,0.0196 -0.3473,0.41437 -0.74651,0.87734 -0.39921,0.46298 -0.72583,0.93692 -0.72583,1.05321 0,0.11629 0.14325,0.27671 0.31833,0.35648 0.17507,0.0798 0.31776,0.17882 0.31709,0.2201 -4.8e-4,0.0413 -0.20123,0.32664 -0.44566,0.63413 -0.70958,0.89264 -0.6666,0.91308 1.09498,0.52069 l 1.15472,-0.25721 0.58797,0.67104 c 0.78234,0.89285 4.90001,5.06394 4.99909,5.06394 0.0428,0 0.57413,-0.41542 1.18064,-0.92315 z m -30.98069,-0.88079 c 1.69273,-0.12602 3.4972,-0.0744 4.84973,0.13871 l 0.68915,0.10859 -0.99645,-0.94065 c -0.54805,-0.51735 -1.08302,-0.94064 -1.18883,-0.94064 -0.1058,0 -0.44746,0.18319 -0.75923,0.40709 -0.72437,0.5202 -1.24133,0.51804 -2.03624,-0.008 -0.42928,-0.28434 -0.64609,-0.35873 -0.79677,-0.27335 -0.39554,0.2241 -1.98813,1.80306 -1.73498,1.72013 0.14006,-0.0459 1.02819,-0.14101 1.97362,-0.2114 z m -24.87643,-4.70748 c 1.60155,-1.41029 3.21449,-2.84767 3.58432,-3.19419 l 0.67241,-0.63003 -1.14056,-1.23054 c -0.62731,-0.6768 -1.62458,-1.70914 -2.21618,-2.29409 -1.21932,-1.20563 -1.16607,-1.19997 -2.11552,-0.22516 l -0.56217,0.57719 0.30751,0.26284 c 0.35795,0.30596 2.59714,2.01453 3.00768,2.29496 0.27284,0.18637 0.23496,0.22802 -1.56348,1.71897 -1.0137,0.84038 -2.07585,1.71199 -2.36032,1.93692 l -0.51722,0.40897 -1.77253,-1.33614 c -2.0033,-1.51009 -4.69944,-3.73143 -4.69944,-3.87184 0,-0.10333 0.96031,-0.96931 3.22695,-2.90993 1.58062,-1.35328 1.67523,-1.39029 2.1314,-0.83389 0.16986,0.20718 0.16038,0.20708 -0.16028,-0.001 l -0.34081,-0.22175 -0.9325,0.87011 c -0.51287,0.47857 -1.49325,1.37803 -2.17863,1.9988 -1.21787,1.1031 -1.24097,1.13443 -1.01864,1.38199 0.27904,0.3107 2.71502,2.15189 4.40142,3.32675 l 1.24532,0.86757 0.58139,-0.48967 c 0.31976,-0.26936 0.75881,-0.64049 0.97565,-0.82478 l 0.39426,-0.33506 -0.56567,-0.28253 c -1.02988,-0.51438 -4.83126,-2.72846 -4.83126,-2.81392 0,-0.0461 0.70191,-0.65996 1.5598,-1.36398 0.85789,-0.70403 1.9036,-1.5968 2.32378,-1.98393 l 0.76399,-0.70387 -1.20964,-1.14609 c -0.66531,-0.63035 -1.25928,-1.14885 -1.31995,-1.15221 -0.0607,-0.003 -0.43531,0.29469 -0.83253,0.66236 -0.39722,0.36767 -2.1079,1.83164 -3.80151,3.25328 -1.69362,1.42163 -3.10687,2.62939 -3.14055,2.68389 -0.0337,0.0545 1.26709,1.26925 2.89062,2.69942 1.62353,1.43019 3.26817,2.89377 3.65475,3.25241 1.1092,1.02904 2.47787,2.20822 2.56587,2.21065 0.0442,10e-4 1.39073,-1.15166 2.99227,-2.56195 z m 27.8687,2.05484 c 0.6725,-0.39892 1.31087,-0.48243 1.91933,-0.25109 0.18935,0.072 0.37291,0.10225 0.40791,0.0672 0.035,-0.035 -0.10187,-0.39472 -0.30416,-0.79938 -0.42627,-0.85275 -0.70812,-0.96397 -1.38411,-0.54618 l -0.43926,0.27148 -0.0599,-0.29419 c -0.0584,-0.28676 -0.33518,-7.71743 -0.3323,-8.91955 l 0.001,-0.60354 1.1437,-0.5744 c 2.52336,-1.26732 4.30726,-1.55336 8.87693,-1.42342 2.50401,0.0712 2.57396,0.0663 2.65374,-0.18504 0.045,-0.14199 0.0433,-0.29682 -0.004,-0.34407 -0.0472,-0.0473 -2.21549,-0.0858 -4.81836,-0.0856 -5.38629,3.6e-4 -6.22871,0.0868 -7.68893,0.78936 l -0.92543,0.44522 -0.88448,-0.45772 c -0.5322,-0.27541 -1.22985,-0.51368 -1.75164,-0.59822 -0.87045,-0.14103 -11.54063,-0.31079 -11.74126,-0.1868 -0.0582,0.036 -0.0796,0.2026 -0.0476,0.37026 l 0.0583,0.30483 2.82142,-0.062 c 3.19764,-0.0702 5.5517,0.0929 6.95967,0.48242 0.52524,0.1453 1.55099,0.54795 2.27945,0.89478 l 1.32446,0.63062 -0.0817,1.43105 c -0.045,0.78708 -0.11337,2.72028 -0.15204,4.29599 -0.0386,1.57572 -0.10092,3.16785 -0.13833,3.53806 l -0.068,0.67313 -0.44034,-0.38663 c -0.5343,-0.46912 -0.68536,-0.47799 -1.17169,-0.0688 -0.33968,0.28583 -0.87253,1.29513 -0.74898,1.41868 0.0272,0.0272 0.25695,-0.0373 0.51056,-0.14322 0.78012,-0.32596 1.38703,-0.20064 2.23726,0.46199 0.46162,0.35974 1.2317,0.30346 1.98829,-0.14534 z m 8.59799,-0.21855 c -0.78684,-0.91853 -3.59176,-3.73221 -3.86592,-3.878 -0.27069,-0.14394 1.5609,1.8886 3.26536,3.62363 0.90144,0.9176 1.3209,1.09526 0.60056,0.25437 z m -19.15629,-0.83192 c 0.86301,-0.88606 2.1428,-2.30414 3.16102,-3.50259 0.52192,-0.6143 -0.13706,-0.26561 -1.16923,0.61868 -1.72793,1.48036 -3.66128,3.93438 -3.09964,3.93438 0.0466,0 0.54511,-0.47271 1.10785,-1.05047 z m 20.33106,-1.01921 c 0.22496,-0.8835 0.37445,-1.64092 0.3322,-1.68317 -0.0423,-0.0422 -0.79981,0.19708 -1.68347,0.53183 l -1.60664,0.60864 1.17204,1.17693 c 0.64462,0.64731 1.21812,1.13085 1.27444,1.07452 0.0563,-0.0563 0.28647,-0.82527 0.51143,-1.70875 z m -25.39116,1.04352 c 0.68396,-0.14669 1.56013,-0.79611 1.85381,-1.37407 0.0943,-0.18556 0.21308,-0.67937 0.26396,-1.09736 l 0.0925,-0.75998 -0.60312,0.67082 c -0.72381,0.80506 -1.38617,1.16844 -2.12286,1.16468 -1.2142,-0.006 -2.38073,-0.9851 -2.65974,-2.23191 -0.12837,-0.57361 -0.11809,-0.77425 0.0693,-1.35222 0.38479,-1.18691 1.18849,-1.76296 2.45298,-1.75817 0.72351,0.003 1.69107,0.323 1.875,0.6206 0.19384,0.31364 0.33651,0.10677 0.30787,-0.44639 -0.0553,-1.06885 -0.92241,-1.69938 -2.33696,-1.69938 -1.64592,0 -3.16435,1.2781 -3.69758,3.11234 -0.63533,2.18544 0.67329,4.52172 2.86363,5.11247 0.73783,0.19899 0.87784,0.20228 1.6412,0.0386 z m 5.33689,-1.84832 0.39948,-0.51887 -0.61744,-0.15824 c -0.33959,-0.087 -1.05269,-0.37691 -1.58468,-0.64416 -0.79286,-0.39831 -0.96724,-0.44768 -0.96724,-0.27384 0,0.20824 0.86111,3.29906 0.96675,3.46999 0.0602,0.0973 1.18604,-1.07338 1.80313,-1.87488 z m 25.41916,1.80297 c 0.8982,-0.27032 1.65083,-0.95717 2.14113,-1.95399 0.38605,-0.78485 0.42017,-0.9526 0.42017,-2.06579 0,-1.15126 -0.0227,-1.25277 -0.4564,-2.03922 -1.29865,-2.35502 -3.99577,-2.96493 -5.54355,-1.25359 -0.28359,0.31356 -0.52507,1.76291 -0.29372,1.76291 0.065,0 0.11813,-0.0569 0.11813,-0.12653 0,-0.20873 1.02197,-0.88319 1.55623,-1.02705 1.73259,-0.46654 3.63515,1.22034 3.35467,2.97437 -0.11027,0.68962 -0.4955,1.39455 -0.9899,1.81141 -1.20653,1.01733 -2.41622,0.9241 -3.68259,-0.28381 l -0.73597,-0.70199 -0.0862,0.34363 c -0.22397,0.89241 0.6692,2.07941 1.87911,2.49727 0.82132,0.28365 1.52114,0.30248 2.31893,0.0624 z m -38.01278,-1.86685 1.06302,-1.01836 -0.6094,-0.53642 c -0.33517,-0.29503 -0.65372,-0.53642 -0.70789,-0.53642 -0.13949,0 -2.52869,1.96371 -2.52311,2.07377 0.007,0.14185 1.30964,1.02177 1.52336,1.02918 0.10505,0.004 0.66936,-0.45165 1.25402,-1.01175 z m 31.39667,-1.05338 c 1.64845,-0.8591 2.15478,-1.22703 1.95859,-1.42323 -0.0436,-0.0436 -1.03397,0.38704 -2.20079,0.95701 -1.77534,0.86721 -2.09673,1.06614 -1.96973,1.21917 0.0835,0.10057 0.21637,0.18021 0.29533,0.17697 0.079,-0.003 0.94144,-0.42171 1.9166,-0.92992 z m 6.20343,0.0906 c 0.45701,-0.43784 0.56998,-1.01135 0.31801,-1.6144 -0.20924,-0.50077 -0.85683,-0.97711 -1.32944,-0.97788 -0.73065,-9.6e-4 -1.42614,0.74482 -1.42614,1.52973 0,0.42741 0.36302,1.00807 0.80199,1.28279 0.52505,0.32859 1.15065,0.24436 1.63558,-0.22024 z m -30.15251,-0.0452 c 0.74265,-0.65206 0.68917,-1.64332 -0.1232,-2.28365 -0.78616,-0.61967 -2.08455,0.0539 -2.08455,1.08139 0,1.32661 1.27521,2.02104 2.20775,1.20226 z m 6.04567,-0.13381 c -0.0759,-0.22762 -3.92418,-2.17519 -3.92418,-1.98598 0,0.23851 1.34025,1.15533 2.45029,1.67616 0.91665,0.4301 1.559,0.56512 1.47389,0.30982 z m 17.46192,-0.83187 c 1.71608,-0.86716 2.55205,-1.46778 2.55205,-1.83355 0,-0.0576 -1.19967,0.5024 -2.66593,1.24454 -1.46626,0.74214 -2.6375,1.39533 -2.60276,1.45154 0.17027,0.27551 0.96186,0.0242 2.71664,-0.86253 z m -16.68911,0.21224 c 0.21316,-0.13498 -0.13204,-0.36647 -2.34137,-1.57009 -2.59251,-1.41237 -2.53086,-1.3897 -2.39797,-0.88155 0.0812,0.31045 1.75096,1.35851 3.38883,2.12706 1.00154,0.46995 1.0881,0.49076 1.35051,0.32458 z m 28.23195,-1.88962 c 0.54567,-0.71869 4.13167,-4.98901 5.58688,-6.65302 2.60184,-2.97519 5.97638,-7.11914 5.87768,-7.21784 -0.0522,-0.0522 -5.14237,0.52708 -6.43037,0.73182 -0.44498,0.0707 -1.07526,0.26886 -1.40064,0.44029 -0.51149,0.26948 -4.56669,2.81923 -5.3703,3.37664 -0.24558,0.17034 -0.27055,0.2657 -0.19175,0.73215 0.0498,0.29496 0.15769,0.5363 0.23967,0.5363 0.082,0 1.00805,-0.46864 2.05793,-1.04142 2.98371,-1.62783 3.57589,-1.85197 5.35464,-2.02673 0.83606,-0.0821 1.70634,-0.22468 1.93395,-0.31674 0.2276,-0.0921 0.41382,-0.1338 0.41382,-0.0928 0,0.0852 -1.24254,1.49231 -2.73761,3.10018 -1.5615,1.67932 -3.75395,4.1812 -4.94419,5.642 -1.19812,1.47047 -1.28953,1.46558 -0.24937,-0.0133 0.37953,-0.53961 0.50682,-0.81304 0.39412,-0.84664 -2.10166,-0.62651 -3.77514,-1.28395 -3.63218,-1.42692 0.0333,-0.0333 0.94131,0.0278 2.0178,0.13579 2.86564,0.28747 2.75949,0.30181 3.34062,-0.45156 0.27062,-0.35084 0.46459,-0.66534 0.43105,-0.69889 -0.075,-0.075 -2.45815,-0.38278 -3.8802,-0.50111 l -1.04714,-0.0871 -0.0614,-0.40087 c -0.0337,-0.22048 -0.1236,-0.86852 -0.19966,-1.44008 -0.18963,-1.42498 -0.68172,-3.40242 -1.14683,-4.60851 -0.90224,-2.33957 -3.60907,-6.008608 -5.91495,-8.017555 -0.35312,-0.307649 -0.91433,-0.837625 -1.24712,-1.177714 -1.00807,-1.030202 -3.14125,-1.900989 -4.65688,-1.900989 h -0.68817 l 0.22213,0.350162 c 0.4484,0.706864 0.9141,1.087561 2.00107,1.635796 0.61138,0.308361 1.16309,0.560656 1.22603,0.560656 0.0629,0 0.18614,-0.173125 0.27378,-0.384726 0.25745,-0.621519 0.37554,-0.56298 0.29174,0.144611 l -0.0781,0.659418 0.34144,-0.06527 c 0.28469,-0.05443 0.32935,-0.02719 0.26869,0.163947 -0.0545,0.17172 0.11241,0.364768 0.66532,0.769528 1.87555,1.373005 3.22196,2.8388 4.48991,4.888026 2.00606,3.24212 2.35928,4.40591 2.26077,7.44884 -0.0503,1.55524 -0.1313,2.22556 -0.38188,3.16207 l -0.31799,1.18845 0.59056,0.24619 c 0.99399,0.41437 1.58696,0.76579 2.10301,1.24633 0.6044,0.56282 1.43299,1.80304 1.54484,2.31231 0.0454,0.20668 0.12849,0.3758 0.18465,0.3758 0.0562,0 0.26524,-0.21487 0.46463,-0.4775 z m -40.98195,-0.38697 c 0.15721,-0.40545 0.28585,-0.78329 0.28585,-0.83965 0,-0.0564 -0.99282,-1.14278 -2.20626,-2.41426 -3.98338,-4.17391 -7.46204,-8.01515 -7.58053,-8.37063 -0.0266,-0.0798 0.0847,-0.0572 0.25399,0.0516 0.16573,0.10647 0.9204,0.37259 1.67704,0.5914 2.00958,0.58111 3.13555,1.01989 5.55424,2.16441 1.18923,0.56275 2.22222,1.02318 2.29554,1.02318 0.0733,0 0.1333,-0.25112 0.1333,-0.55804 0,-0.54532 -0.0181,-0.56962 -0.79581,-1.06716 -3.51487,-2.24868 -4.57042,-2.76511 -6.79349,-3.32374 -1.90068,-0.47761 -6.40756,-1.34221 -6.50236,-1.24741 -0.0318,0.0318 0.10512,0.24997 0.30417,0.48493 2.78443,3.2868 3.8949,4.53297 6.84821,7.68504 0.98423,1.05048 2.75542,2.95566 3.93597,4.23374 1.18056,1.27808 2.18198,2.32378 2.22538,2.32378 0.0434,0 0.20754,-0.33173 0.36476,-0.73717 z m 16.21142,-0.26045 c 0.81055,-0.2815 1.78646,-0.77098 1.55386,-0.77937 -0.0857,-0.003 -0.6014,0.17331 -1.14597,0.39202 -0.76763,0.30829 -1.25064,0.41212 -2.14943,0.46204 -1.4284,0.0793 -1.99658,-0.0883 -3.62274,-1.0686 -0.6395,-0.38552 -1.1874,-0.67628 -1.21756,-0.64612 -0.0302,0.0302 0.39063,0.34584 0.93509,0.70152 0.94414,0.61676 1.90769,1.06914 2.5868,1.21447 0.5968,0.12773 2.35378,-0.0307 3.05995,-0.27596 z m 11.46892,0.11001 c 0.76297,-0.23662 3.26912,-1.7245 3.13336,-1.86025 -0.0979,-0.0979 -0.7247,0.20721 -1.53871,0.74914 -1.98543,1.32183 -2.96144,1.45606 -5.41327,0.74447 -1.65821,-0.48126 -2.05129,-0.46121 -0.56894,0.029 1.99539,0.6599 3.07942,0.74332 4.38756,0.33763 z m -12.51233,-0.26578 c 0.59821,-0.13792 2.17692,-0.77862 2.17792,-0.88389 4.8e-4,-0.0673 -0.40854,-0.32019 -1.47743,-0.91299 l -0.652,-0.36159 -0.0822,0.61937 c -0.047,0.35421 -0.18281,0.71046 -0.31727,0.83214 -0.57975,0.52467 -1.66442,0.49632 -2.07548,-0.0542 -0.13029,-0.17451 -0.27277,-0.62023 -0.31662,-0.99049 -0.0611,-0.51587 -0.1228,-0.65667 -0.26405,-0.60247 -0.10137,0.0389 -0.33656,0.10703 -0.52264,0.15141 -0.18609,0.0444 -0.40942,0.13664 -0.49629,0.20504 -0.0869,0.0684 -0.3593,0.19358 -0.60539,0.27818 l -0.44744,0.15382 0.92372,0.57937 c 1.09208,0.68497 1.43367,0.86758 1.87126,1.00037 0.46961,0.14249 1.63605,0.13534 2.28388,-0.014 z m 12.33883,-0.0624 c 0.52153,-0.21721 2.31544,-1.35202 2.31805,-1.46638 0.002,-0.11434 -0.8547,-0.49194 -1.38995,-0.6122 l -0.48903,-0.10988 -0.0644,0.57115 c -0.0789,0.70014 -0.49309,1.15556 -1.14751,1.26175 -0.86203,0.13989 -1.61872,-0.4591 -1.61872,-1.28138 0,-0.18178 -0.0397,-0.33051 -0.0881,-0.33051 -0.13061,0 -1.79831,1.00484 -1.87581,1.13024 -0.0686,0.11101 1.17417,0.67401 1.96391,0.88969 0.69599,0.19009 1.87104,0.1643 2.39153,-0.0525 z m -24.9641,-2.37537 c 0.47449,-0.21864 0.87248,-0.40275 0.88442,-0.40913 0.0119,-0.006 -0.11686,-0.58436 -0.28624,-1.28441 -0.33779,-1.39604 -0.414,-3.42057 -0.18209,-4.83686 0.29574,-1.80604 1.80804,-5.40518 3.07689,-7.32272 0.70011,-1.058016 2.64149,-2.988693 3.58503,-3.565254 0.69767,-0.426315 0.72672,-0.465003 0.6695,-0.891318 l -0.0598,-0.445656 0.28878,0.355046 c 0.3899,0.479383 0.77412,0.35767 0.67784,-0.214724 -0.0365,-0.217241 -0.10609,-0.495254 -0.15456,-0.617813 -0.0485,-0.122555 -0.0316,-0.222829 0.0374,-0.222829 0.069,0 0.19671,0.171898 0.28374,0.381992 0.087,0.210099 0.23517,0.381992 0.32921,0.381992 0.36056,0 2.96232,-1.416245 3.16221,-1.721319 0.20337,-0.310372 0.20078,-0.315887 -0.14606,-0.311436 -0.1942,0.0024 -0.69688,0.08817 -1.11708,0.190382 -0.47026,0.114398 -1.03323,0.157523 -1.4643,0.11218 -0.65739,-0.06916 -0.74455,-0.04375 -1.42182,0.414437 -4.87342,3.296964 -8.48691,8.69428 -9.65356,14.4191 -0.14138,0.69375 -0.25704,1.46107 -0.25704,1.70516 v 0.4438 l -2.2304,0.0929 c -1.22671,0.0511 -2.26374,0.14689 -2.30451,0.21285 -0.0408,0.066 0.36942,0.54653 0.91152,1.06793 l 0.98564,0.948 1.7577,-0.033 c 1.1626,-0.0219 1.80583,0.015 1.89986,0.10868 0.15336,0.15286 -0.21677,0.221 -2.07029,0.38115 -0.54275,0.0469 -0.98681,0.12314 -0.98681,0.16944 0,0.0463 0.38221,0.54786 0.84937,1.1146 l 0.84936,1.03043 0.61172,-0.62803 c 0.3809,-0.39105 0.93724,-0.77803 1.47441,-1.02556 z m 15.22643,0.64875 c -0.79899,-1.37484 -3.05574,-2.53279 -4.9362,-2.53279 -1.48969,0 -5.4419,1.02845 -5.52049,1.43656 -0.078,0.40479 0.58075,0.40138 2.3208,-0.012 3.21447,-0.76368 4.08372,-0.79539 5.64957,-0.20606 0.83696,0.31499 1.98626,1.01637 2.382,1.45365 0.3321,0.36697 0.36952,0.31699 0.10432,-0.13935 z m 5.3418,-0.1918 c 0.60337,-0.54511 1.50149,-0.97681 2.64099,-1.26947 1.03955,-0.26699 2.44377,-0.18149 4.32924,0.26359 1.64872,0.3892 2.17689,0.40371 2.48054,0.0682 0.27366,-0.30238 0.31756,-0.28121 -1.33456,-0.64361 -3.08129,-0.67588 -4.65766,-0.73288 -5.92088,-0.2141 -0.85265,0.35017 -2.10298,1.23972 -2.53069,1.80049 -0.44414,0.58228 -0.31258,0.58029 0.33536,-0.005 z m -1.14277,-5.54928 c 0.63842,-0.5628 1.2639,-1.08769 1.38996,-1.16641 0.33857,-0.21144 0.27942,-0.33653 -0.15913,-0.33653 -0.51433,0 -0.93072,0.228 -1.96575,1.0764 -0.47387,0.38843 -0.89966,0.70623 -0.94621,0.70623 -0.0465,0 -0.34008,-0.26075 -0.6523,-0.57944 -0.86584,-0.88379 -1.69819,-1.37812 -2.09675,-1.24526 -0.3163,0.10543 -0.29548,0.13528 0.78536,1.12566 1.73712,1.59174 1.93897,1.73434 2.23253,1.57724 0.13834,-0.074 0.77386,-0.59508 1.41229,-1.15789 z m -25.37494,0.78901 c 0.31514,-0.13224 0.489,-0.24363 0.38636,-0.24755 -0.10264,-0.004 -0.45823,-0.27464 -0.79021,-0.60162 l -0.60357,-0.5945 -0.70593,0.15798 c -0.38827,0.0869 -0.70593,0.19487 -0.70593,0.23997 0,0.0451 0.27001,0.35613 0.60003,0.69119 0.67559,0.6859 0.91728,0.733 1.81925,0.35453 z m 48.25379,-0.18636 0.42746,-0.44102 -0.3471,-0.13197 c -0.62113,-0.23615 -1.02642,-0.15244 -1.66292,0.34344 -0.58402,0.45501 -0.59722,0.47906 -0.30739,0.5603 0.16655,0.0467 0.56375,0.0906 0.88266,0.0976 0.50254,0.011 0.63683,-0.0461 1.00729,-0.42833 z m -26.86225,0.11659 c 0,-0.11518 -0.66071,-0.66629 -1.30444,-1.08804 l -0.60411,-0.3958 -4.48911,0.14073 c -2.46901,0.0774 -4.81858,0.14046 -5.22126,0.14015 -0.67506,-4.9e-4 -0.73201,0.0217 -0.73041,0.28592 9.6e-4,0.15757 0.0325,0.40109 0.0701,0.54115 0.0672,0.25038 0.15887,0.25399 5.44165,0.21445 3.0685,-0.023 5.64634,0.0119 6.00991,0.0812 0.84831,0.16186 0.82765,0.15986 0.82765,0.0802 z m 10.97478,-0.10367 5.18124,0.0176 0.13481,-0.38672 c 0.0741,-0.2127 0.13481,-0.42858 0.13481,-0.47974 0,-0.0967 -0.87849,-0.15055 -6.43474,-0.39471 -3.75355,-0.16495 -3.56116,-0.19923 -4.70668,0.83861 l -0.63666,0.57681 0.57299,-0.0947 c 0.31514,-0.0521 2.90454,-0.0868 5.75423,-0.0771 z m 14.07938,-0.3961 c 0.46241,-0.42993 0.46678,-0.44223 0.15729,-0.44286 -0.38747,-9.6e-4 -1.40064,0.44304 -1.40064,0.61357 0,0.0676 0.0716,0.15185 0.15917,0.18717 0.36721,0.14817 0.63495,0.0598 1.08418,-0.35788 z m -45.36939,0.16711 c 0.17838,-0.0813 0.32432,-0.19274 0.32432,-0.24771 0,-0.15621 -1.90095,-1.05665 -2.0067,-0.95054 -0.0695,0.0697 1.16788,1.31619 1.33222,1.34196 0.0142,0.002 0.17179,-0.0624 0.35016,-0.14371 z m 23.16326,-1.09371 c 0.16782,-0.26261 0.27987,-0.52046 0.249,-0.57299 -0.0309,-0.0525 -0.36789,-0.0955 -0.74893,-0.0955 -0.51434,0 -0.6928,0.0467 -0.6928,0.18123 0,0.21038 0.60478,0.96475 0.77344,0.96475 0.0628,0 0.25147,-0.21487 0.41929,-0.47749 z m -26.3087,-0.22313 c 0.36767,-0.13775 0.66849,-0.28987 0.66849,-0.33802 0,-0.0482 -0.55867,-0.30093 -1.24147,-0.56172 -0.68281,-0.26079 -1.43472,-0.55174 -1.67091,-0.64656 -0.40214,-0.16145 -0.41881,-0.15824 -0.26225,0.0504 0.31258,0.41665 1.70449,1.8165 1.77123,1.78132 0.0365,-0.0192 0.36725,-0.14771 0.73491,-0.28547 z m 52.16023,0.003 c 0.20136,-0.30733 0.19757,-0.31763 -0.14452,-0.39263 -0.19323,-0.0423 -0.41555,-0.0962 -0.49406,-0.11975 -0.17066,-0.0511 -2.11763,0.18098 -2.19873,0.26209 -0.11758,0.11757 0.1411,0.2359 0.8476,0.38772 1.22796,0.26386 1.75041,0.22778 1.98971,-0.13743 z m -11.05742,-0.33216 c 0.0471,-0.0761 0.0361,-0.18779 -0.0243,-0.24811 -0.0604,-0.0603 -1.57099,-0.22793 -3.3568,-0.37244 -1.78582,-0.14451 -4.30696,-0.36232 -5.60255,-0.48404 -2.81452,-0.2644 -10.96892,-0.29148 -14.13369,-0.0469 -2.63401,0.20353 -7.1124,0.64391 -7.47586,0.73513 -0.45613,0.11449 -0.36204,0.4275 0.12851,0.4275 0.66752,0 9.10448,-0.37457 11.48559,-0.50991 3.00285,-0.17069 5.23415,-0.15426 7.76717,0.0572 1.19053,0.0994 3.59709,0.24512 5.34788,0.32386 1.7508,0.0787 3.38381,0.15897 3.62892,0.17827 1.18218,0.0931 2.1565,0.0668 2.23515,-0.0605 z m 7.26103,-2.87329 c 1.71831,-1.27846 3.4891,-3.3332 8.23558,-9.556182 0.19311,-0.25319 0.33221,-0.479257 0.3091,-0.502367 -0.10263,-0.102626 -5.37585,1.299471 -7.91728,2.105126 -1.53969,0.488088 -2.81909,0.86777 -2.84312,0.843741 -0.024,-0.02401 0.5966,-2.010983 1.37918,-4.415446 0.78258,-2.404466 1.45373,-4.504833 1.49145,-4.667483 0.0628,-0.270733 -0.0754,-0.223648 -1.63516,0.557086 -2.10054,1.051434 -3.28189,1.725689 -5.33389,3.044306 -2.94609,1.893167 -4.71586,3.205905 -4.7078,3.492056 0.001,0.04298 0.14304,0.211711 0.31519,0.374975 l 0.31299,0.29684 2.00859,-1.328947 c 2.20968,-1.461993 3.96276,-2.530516 5.67714,-3.460286 l 1.12194,-0.608466 -0.18641,0.428384 c -1.22157,2.807262 -3.58033,8.005595 -3.77688,8.323615 -0.27939,0.452068 -0.66737,1.474838 -0.58914,1.553078 0.0274,0.0274 0.30685,-0.12371 0.62104,-0.33575 1.01581,-0.68557 4.9867,-2.208178 8.7746,-3.364568 0.79424,-0.242468 1.54662,-0.481663 1.67197,-0.531545 0.12534,-0.04988 -0.45441,0.76344 -1.28834,1.807381 -1.51643,1.898332 -3.19497,3.750222 -5.22003,5.759132 l -1.07713,1.06854 -0.24075,-0.49555 c -0.42335,-0.87144 -2.24191,-2.53948 -2.4939,-2.28749 -0.0402,0.0402 0.13298,0.54773 0.38492,1.12779 0.37852,0.87153 0.65521,1.71629 1.06202,3.24245 0.0444,0.16648 2.29299,-1.24194 3.94412,-2.47042 z m -41.82849,1.26092 c 0.22696,-0.68281 0.66142,-1.79258 0.96548,-2.46615 0.30406,-0.67356 0.55284,-1.29163 0.55284,-1.37348 0,-0.19636 -2.08729,-1.5403 -3.37412,-2.1725 -1.20062,-0.589846 -6.43313,-2.717845 -6.50533,-2.645643 -0.0274,0.02738 0.46418,0.652285 1.09231,1.388722 1.28878,1.510981 1.37069,1.559721 3.59451,2.138761 1.20522,0.31382 2.84682,0.84663 4.5524,1.47757 0.11205,0.0414 0.13682,0.10498 0.0616,0.15798 -0.0692,0.0488 -0.58329,0.62268 -1.1424,1.2754 -0.65683,0.76679 -1.00244,1.27387 -0.97665,1.43294 0.0386,0.23791 0.0246,0.23714 -0.41608,-0.0229 -0.58233,-0.34344 -4.98949,-5.14412 -6.52581,-7.108362 l -1.1721,-1.498568 0.66277,0.223372 c 0.36453,0.122858 1.71388,0.601533 2.99856,1.06372 2.44243,0.878719 4.48306,1.51199 4.57522,1.419831 0.0601,-0.06014 -0.72528,-2.239298 -0.86598,-2.402672 -0.049,-0.05688 -2.16987,-0.586206 -4.71306,-1.176266 -2.54319,-0.590064 -5.04421,-1.188132 -5.55784,-1.329042 -0.51362,-0.14091 -0.9625,-0.256202 -0.99752,-0.256202 -0.3685,0 7.22024,8.938829 9.33468,10.995389 0.59412,0.57786 2.96553,2.09855 3.29522,2.1131 0.0818,0.004 0.33436,-0.5521 0.56131,-1.23491 z m 34.62116,0.24714 c -0.0114,-1.71075 -0.98024,-2.82559 -2.45572,-2.82559 -1.20514,0 -2.25241,1.01577 -2.25241,2.18465 0,0.26912 0.0267,0.4893 0.0593,0.4893 0.24172,0 2.96795,0.41793 3.6333,0.55699 0.45521,0.0951 0.87063,0.1486 0.92315,0.1188 0.0525,-0.0298 0.0941,-0.26566 0.0924,-0.52415 z m -2.89367,-0.3633 c -0.21904,-0.0884 -0.19939,-0.43822 0.0441,-0.78593 0.27532,-0.39306 0.86102,-0.33905 0.92107,0.0849 0.0741,0.52289 -0.45477,0.90696 -0.96521,0.70099 z m -25.64331,0.33257 c 1.36222,-0.20851 1.97672,-0.3544 2.02523,-0.48082 0.0963,-0.25091 -0.19173,-1.0195 -0.57298,-1.52906 -0.49296,-0.65886 -1.00631,-0.91128 -1.85436,-0.91183 -0.83154,-4.8e-4 -1.25299,0.17671 -1.80814,0.76043 -0.35302,0.37119 -0.38545,0.48437 -0.42757,1.49214 l -0.0456,1.09049 0.3639,-0.061 c 0.20015,-0.0335 1.24392,-0.19571 2.3195,-0.36034 z m -0.6801,-0.58258 c -0.43936,-0.43936 0.0326,-1.30578 0.53898,-0.98948 0.34613,0.21619 0.54541,0.69593 0.4011,0.9656 -0.15355,0.28691 -0.66408,0.29988 -0.94008,0.0239 z m 24.03069,-0.39782 c 0.0365,-0.40268 0.1919,-1.15334 0.34523,-1.66814 0.33379,-1.12061 1.03064,-1.97164 1.80423,-2.20341 0.27138,-0.0813 0.49343,-0.19314 0.49343,-0.24851 0,-0.11811 -1.43792,-0.82022 -1.93076,-0.94275 -0.32067,-0.0797 -0.3647,-0.0304 -0.80912,0.90611 -0.54433,1.14707 -1.31316,3.42283 -1.42022,4.20388 -0.0707,0.51586 -0.0589,0.53987 0.29241,0.59224 0.20135,0.03 0.54435,0.0632 0.76223,0.0737 0.39247,0.0189 0.39676,0.0123 0.46257,-0.71308 z m -19.36924,0.24029 c 0.16016,-0.16295 -0.26134,-1.66827 -0.75921,-2.7114 -0.52817,-1.10663 -1.45617,-2.42084 -1.98908,-2.81688 -0.3013,-0.223916 -0.31283,-0.220143 -0.97255,0.31833 -0.36721,0.29971 -0.68789,0.60614 -0.71262,0.68096 -0.0247,0.0748 0.23901,0.26906 0.58612,0.43163 1.25466,0.58765 1.93053,1.62006 2.18628,3.33956 l 0.14133,0.95028 0.72,-0.0557 c 0.396,-0.0306 0.75588,-0.0922 0.79973,-0.1368 z m 17.42262,-0.81327 c 0.20371,-1.15722 1.0237,-4.03876 1.37419,-4.8291 0.3199,-0.721374 0.37411,-0.657733 -1.43225,-1.681597 -1.08086,-0.61264 -1.27944,-0.687561 -1.31384,-0.495692 -0.0652,0.363373 -0.76772,2.859259 -1.43911,5.112439 -0.34172,1.14683 -0.62131,2.19254 -0.62131,2.32379 0,0.20319 0.0999,0.23864 0.67268,0.23864 h 0.67269 l 0.16199,-0.85948 c 0.0891,-0.47271 0.45974,-1.95722 0.82365,-3.2989 l 0.66165,-2.439413 0.34996,0.183365 c 0.40707,0.21328 0.41322,0.247401 0.15571,0.863688 -0.2869,0.68667 -1.46105,4.98182 -1.46105,5.34469 0,0.35772 0.13571,0.43659 0.77543,0.45066 l 0.4571,0.0101 z m -15.30799,0.61585 c 0.0304,-0.0287 -0.23636,-0.99215 -1.02527,-3.70362 -0.24452,-0.84038 -0.47857,-1.69986 -0.52011,-1.90996 -0.0892,-0.450849 0.0963,-0.833611 0.30352,-0.626404 0.16375,0.16375 1.0204,2.907754 1.49742,4.796484 l 0.3457,1.3688 h 0.67131 c 0.36922,0 0.67131,-0.0498 0.67131,-0.11074 0,-0.35066 -1.42377,-4.22582 -2.34522,-6.383122 -0.33422,-0.782464 -0.65416,-1.354299 -0.77141,-1.378751 -0.18054,-0.03763 -1.94437,0.878247 -2.53056,1.314042 -0.22744,0.169087 -0.22594,0.18545 0.0429,0.470109 0.15321,0.162205 0.38509,0.501467 0.51529,0.753912 0.40368,0.78272 1.24071,3.34749 1.47115,4.50786 l 0.2196,1.10574 0.7123,-0.0881 c 0.39177,-0.0485 0.72569,-0.10077 0.74205,-0.1162 z m 5.66831,-0.28376 0.47748,-0.0789 v -0.66597 -0.66597 l -0.79451,-0.072 c -0.43698,-0.0396 -0.81588,-0.0507 -0.84199,-0.0245 -0.0261,0.0261 -0.11988,0.39437 -0.20835,0.81834 l -0.16087,0.77086 0.52538,-0.001 c 0.28895,-9.7e-4 0.74023,-0.0369 1.00286,-0.0803 z m 3.8462,-0.77775 c -0.0492,-0.47271 -0.0967,-0.86626 -0.10563,-0.87454 -0.009,-0.008 -0.39749,0.0434 -0.86357,0.11475 -0.79881,0.12235 -0.85176,0.15151 -0.92315,0.50846 -0.20172,1.00864 -0.14215,1.06119 1.23954,1.09347 l 0.74229,0.0173 z m -23.04957,-0.50932 0.47145,-0.60482 -0.60105,-0.10169 c -0.33059,-0.0559 -0.85801,-0.0846 -1.17206,-0.0637 l -0.57101,0.038 0.60212,0.66848 c 0.33116,0.36767 0.64643,0.66849 0.7006,0.66849 0.0542,0 0.31065,-0.27217 0.56995,-0.60482 z m 42.16564,-1.03024 c -0.26085,-0.0465 -2.23356,0.21589 -2.40092,0.31932 -0.0552,0.0341 0.13803,0.34666 0.42933,0.69457 l 0.52962,0.63258 0.84285,-0.80152 c 0.67835,-0.6451 0.79528,-0.81 0.59912,-0.84495 z m -20.33175,-0.38881 c 2.23315,-0.69503 3.80894,-2.588843 3.93268,-4.726347 0.18571,-3.208091 -1.80877,-5.50642 -5.03898,-5.806637 -1.55936,-0.144928 -3.67706,0.63817 -4.61871,1.707936 -1.88932,2.146387 -1.8118,5.091072 0.19099,7.254318 1.44587,1.56172 3.59923,2.17291 5.53402,1.57073 z m -2.82814,-1.47045 c -2.95896,-1.05544 -3.51569,-5.185563 -0.92848,-6.887907 2.64607,-1.74107 6.18174,0.06017 6.18624,3.151569 0.003,2.305869 -1.65444,3.931338 -3.99246,3.914608 -0.42966,-0.003 -0.99904,-0.0833 -1.2653,-0.17827 z m 3.78688,-2.843259 c 0.40252,-1.181333 0.17041,-2.202366 -0.69243,-3.045954 -1.13234,-1.107066 -3.31354,-0.757332 -4.14705,0.664938 -0.34804,0.593896 -0.59096,1.698446 -0.33933,1.54293 0.0815,-0.05036 0.17117,0.08269 0.22287,0.330666 0.17167,0.823428 0.95646,1.880358 1.39501,1.87876 0.072,-2.6e-4 -0.0554,-0.114017 -0.283,-0.252791 -0.2276,-0.138773 -0.41382,-0.308726 -0.41382,-0.377675 0,-0.06895 0.20131,0.01126 0.44736,0.178217 1.01488,0.688721 2.16151,0.529918 3.12411,-0.432673 0.50756,-0.507559 0.59126,-0.555236 0.48727,-0.277541 -0.0691,0.18441 -0.29843,0.564487 -0.50972,0.844612 l -0.38416,0.509321 0.44704,-0.489647 c 0.24586,-0.269312 0.5365,-0.752232 0.64585,-1.073163 z m -3.18022,0.860085 c -0.96778,-0.295719 -1.44874,-1.418791 -1.00661,-2.35051 0.57795,-1.217932 2.42479,-1.294412 3.18645,-0.131959 0.82908,1.265331 -0.65013,2.949892 -2.17984,2.482469 z m 1.59374,-0.79847 c 0.70546,-0.721567 0.58826,-1.756874 -0.24782,-2.189234 -1.29146,-0.667839 -2.59312,0.525905 -1.95909,1.796669 0.46556,0.933114 1.49874,1.116898 2.20691,0.392565 z m 18.03141,3.725814 c 0.55395,-0.14209 1.82376,-0.40144 2.82181,-0.57633 0.99805,-0.1749 2.00606,-0.38812 2.24002,-0.47382 0.26943,-0.0987 0.84049,-0.61901 1.55757,-1.419165 1.34255,-1.498106 1.36203,-1.492745 -1.49002,-0.410342 -1.72019,0.652839 -6.39745,2.776217 -6.66244,3.024607 -0.20507,0.19221 0.46586,0.12878 1.53306,-0.14495 z m -35.62615,-0.58969 c 0.0208,-0.14031 -0.23117,-0.9953 -0.56002,-1.899991 -1.21945,-3.354868 -2.62343,-8.091562 -2.44983,-8.265161 0.0532,-0.05323 0.19802,0.05464 3.64827,2.717936 2.83793,2.190643 3.34725,2.508374 3.70981,2.314334 0.60546,-0.324035 0.21726,-0.89164 -1.82177,-2.663683 -2.38159,-2.069752 -3.60997,-3.021297 -5.18675,-4.017852 -0.86873,-0.549045 -1.88031,-1.191222 -2.24798,-1.42706 -0.36767,-0.235837 -0.66849,-0.367792 -0.66849,-0.293233 0,0.489906 2.0352,8.153349 2.63611,9.926157 0.17804,0.525241 0.52694,1.402848 0.77533,1.95024 0.38681,0.852403 0.55255,1.067513 1.15463,1.498663 0.74846,0.53595 0.95008,0.5678 1.01069,0.15965 z m 33.91094,-2.341668 c 0.72392,-1.428286 2.87506,-6.034918 3.13766,-6.719219 0.048,-0.124985 -0.33889,0.02635 -1.04946,0.410547 -2.04205,1.104116 -2.06083,1.121793 -2.2914,2.156985 -0.28581,1.283156 -0.92133,3.32787 -1.29793,4.175913 l -0.3189,0.718116 0.34904,0.527426 c 0.19196,0.29009 0.40617,0.50838 0.47602,0.4851 0.0698,-0.0233 0.51757,-0.81297 0.99497,-1.754868 z m -33.02898,0.770409 c 0.0919,-0.360562 -0.30061,-4.596747 -0.48918,-5.279698 -0.10103,-0.365909 -0.34898,-0.607602 -1.37429,-1.339631 -0.68807,-0.49125 -1.28581,-0.89318 -1.32832,-0.89318 -0.0425,0 -0.0416,0.186221 0.002,0.413827 0.12816,0.668552 2.01731,6.328793 2.39048,7.162346 0.32527,0.726545 0.35125,0.751505 0.53009,0.509325 0.10343,-0.14007 0.22456,-0.39791 0.26918,-0.572989 z m 30.89506,-2.091555 c 0.18351,-0.555082 0.31805,-1.024854 0.29897,-1.043936 -0.0916,-0.09159 -1.90703,0.529789 -1.96134,0.671319 -0.0748,0.194873 1.11977,1.615536 1.24275,1.47799 0.0473,-0.05287 0.2361,-0.55029 0.41962,-1.105373 z M 132.1831,95.128323 c 0.0211,-0.175844 -0.16516,-1.588677 -0.41383,-3.139628 -0.24867,-1.550953 -0.45212,-2.888096 -0.45212,-2.971428 0,-0.08583 0.1242,-0.04002 0.28649,0.105645 0.15757,0.141437 0.80219,0.587244 1.43247,0.990682 0.63029,0.403437 1.2749,0.852031 1.43247,0.996874 0.18125,0.166611 0.2865,0.203322 0.2865,0.09994 0,-0.185937 -0.11571,-0.321572 -1.78263,-2.089624 -3.1374,-3.327744 -3.05166,-3.248994 -3.05391,-2.804771 -0.005,0.899881 1.42839,8.129645 1.74548,8.806489 0.223,0.476019 0.46243,0.478704 0.51908,0.0058 z m 23.3975,-0.111111 c 0.30921,-0.212736 0.61261,-0.484907 0.67423,-0.60482 0.14604,-0.284206 0.31662,-8.685512 0.17635,-8.685512 -0.14034,0 -2.92276,2.844291 -3.42543,3.501592 -0.47754,0.624447 -0.85049,1.335314 -0.75215,1.433657 0.10627,0.106266 1.28075,-0.735035 2.24367,-1.607177 l 0.8336,-0.755019 -0.15942,1.355584 c -0.19746,1.679095 -0.37133,5.74849 -0.24561,5.74849 0.0509,0 0.34556,-0.174058 0.65476,-0.386795 z m -21.91569,-0.877828 c 0.19342,-0.213723 0.20737,-0.363974 0.10647,-1.145975 l -0.11614,-0.899998 h 0.35892 c 0.19741,0 0.35854,-0.04298 0.35807,-0.0955 -9.6e-4,-0.133812 -1.78376,-1.090933 -1.87041,-1.004285 -0.0948,0.09479 0.72919,3.391733 0.84768,3.391733 0.051,0 0.19297,-0.110688 0.31541,-0.245977 z m 20.31513,-1.632149 c 9.6e-4,-0.85789 -0.029,-1.5598 -0.0669,-1.5598 -0.17825,0 -3.50144,1.698915 -3.6328,1.857199 -0.12413,0.149567 -0.0717,0.180093 0.3092,0.180093 0.25226,0 0.91732,-0.09242 1.47792,-0.205378 0.56059,-0.112957 1.10609,-0.172054 1.21223,-0.131327 0.11976,0.04596 0.19296,0.237404 0.19296,0.504704 0,0.236857 0.0648,0.616621 0.14407,0.843915 0.24135,0.692354 0.36119,0.201061 0.3633,-1.489406 z m -15.15175,0.140338 c 0.45735,-0.09147 0.9517,-0.789991 3.28783,-4.645711 1.6019,-2.643894 1.49709,-2.515352 1.7989,-2.206108 0.1339,0.137199 0.69692,0.965687 1.25116,1.841085 0.55425,0.875398 1.46099,2.292102 2.015,3.148231 l 1.00727,1.556598 0.60482,0.0032 c 0.33265,0.0018 0.60482,-0.04616 0.60482,-0.106482 0,-0.249808 -2.69174,-4.831068 -4.10811,-6.991873 -1.30676,-1.993588 -1.55265,-2.30377 -1.71772,-2.166781 -0.75111,0.623369 -5.63392,8.874559 -5.63392,9.520454 0,0.14943 0.29988,0.165398 0.88995,0.04738 z m -0.2147,-2.627344 c 0.73361,-1.420378 1.63502,-3.096367 2.00313,-3.724421 0.96158,-1.640621 2.9485,-4.643508 3.07247,-4.643508 0.22353,0 2.73578,3.993664 4.39678,6.989439 1.1677,2.106087 1.77894,3.06968 1.94719,3.06968 0.54803,0 -0.70704,-3.297396 -2.8086,-7.378941 -0.88035,-1.709776 -3.48912,-5.864601 -3.6812,-5.862835 -0.0364,3.34e-4 -0.40888,0.530348 -0.82778,1.177808 -0.97133,1.501306 -2.37424,4.235112 -3.36541,6.558111 -1.04925,2.459081 -2.36247,6.397171 -2.13324,6.397171 0.0346,0 0.66304,-1.162127 1.39666,-2.582504 z m -9.666,1.977684 c 0.14552,-0.728389 0.32151,-2.844333 0.4051,-4.870397 0.0477,-1.155525 0.0961,-2.112827 0.10758,-2.127337 0.0115,-0.01451 0.41968,0.351259 0.90706,0.812821 2.90217,2.748413 4.54315,4.149377 4.65711,3.975942 0.0645,-0.09816 0.23787,-0.368536 0.38527,-0.600829 l 0.26799,-0.42235 -0.31183,-0.341634 c -1.25046,-1.370008 -5.10347,-5.433435 -5.67421,-5.984089 -0.38568,-0.37211 -0.74724,-0.629954 -0.80347,-0.572988 -0.24071,0.243881 -1.89895,6.705506 -2.10314,8.195257 l -0.0791,0.577384 0.97552,0.854189 c 0.53654,0.469805 1.02517,0.85419 1.08586,0.85419 0.0607,0 0.14182,-0.157572 0.1803,-0.350159 z m 30.85978,-0.320975 c 0.72962,-0.377827 0.92295,-0.537768 0.9222,-0.762936 -0.003,-0.939331 -2.41681,-10.267046 -2.75705,-10.654662 -0.10336,-0.117752 -1.41413,1.285637 -3.14503,3.367261 -2.48643,2.990239 -2.67914,3.234932 -3.5317,4.484322 -0.77885,1.14137 -0.92071,1.646441 -0.54908,1.954863 0.22232,0.184518 0.23648,0.171027 4.3514,-4.14791 1.36157,-1.429075 1.97215,-1.988921 2.04521,-1.875273 0.0927,0.144233 0.37827,1.605652 1.30663,6.68744 0.15088,0.825864 0.31031,1.484328 0.35429,1.463254 0.044,-0.02107 0.4954,-0.253436 1.00313,-0.516359 z m -14.22953,-0.904426 c 4.2e-4,-0.138451 -1.61057,-2.583883 -1.76512,-2.679401 -0.0927,-0.0573 -1.92707,2.543656 -1.92716,2.732517 -1e-5,0.03198 0.83067,0.05814 1.84596,0.05814 1.01529,0 1.84613,-0.05007 1.84632,-0.111258 z m -7.38911,-5.873281 c 0.538,-2.028682 1.23133,-3.770538 2.17935,-5.475217 0.73572,-1.322925 2.42816,-3.784429 2.8331,-4.120501 0.15384,-0.127675 0.33226,0.01586 1.04075,0.837229 1.8086,2.096765 3.235,4.354424 4.20626,6.657533 0.6385,1.514054 1.31956,3.481796 1.2529,3.619931 -0.0362,0.07498 0.11228,-0.06422 0.3299,-0.309334 0.21762,-0.245112 0.4305,-0.583342 0.47307,-0.751624 0.16255,-0.64266 -0.86657,-4.110222 -1.79058,-6.033299 -0.8795,-1.830433 -2.85279,-4.662085 -4.76461,-6.837186 -0.60599,-0.689437 -0.53582,-0.728442 -1.92923,1.072458 -2.53155,3.271858 -3.80848,5.850903 -4.70049,9.493716 -0.62774,2.563546 -0.62802,2.57049 -0.12819,3.16585 0.27416,0.326552 0.45781,0.455813 0.51041,0.359249 0.0452,-0.08296 0.2645,-0.838423 0.48736,-1.678805 z"
       id="path1" /></g></svg>
