<?xml version="1.0" encoding="UTF-8" standalone="no"?>
<!-- Created with Inkscape (http://www.inkscape.org/) -->

<svg
   width="150.00014"
   height="138.43478"
   viewBox="0 0 39.687538 36.627534"
   version="1.1"
   id="svg1"
   xml:space="preserve"
   inkscape:version="1.3.2 (091e20ef0f, 2023-11-25, custom)"
   sodipodi:docname="logo.svg"
   xmlns:inkscape="http://www.inkscape.org/namespaces/inkscape"
   xmlns:sodipodi="http://sodipodi.sourceforge.net/DTD/sodipodi-0.dtd"
   xmlns="http://www.w3.org/2000/svg"
   xmlns:svg="http://www.w3.org/2000/svg"><sodipodi:namedview
     id="namedview1"
     pagecolor="#ffffff"
     bordercolor="#000000"
     borderopacity="0.25"
     inkscape:showpageshadow="2"
     inkscape:pageopacity="0.0"
     inkscape:pagecheckerboard="0"
     inkscape:deskcolor="#d1d1d1"
     inkscape:document-units="mm"
     inkscape:zoom="1.2115433"
     inkscape:cx="185.71354"
     inkscape:cy="216.2531"
     inkscape:window-width="1440"
     inkscape:window-height="831"
     inkscape:window-x="0"
     inkscape:window-y="0"
     inkscape:window-maximized="1"
     inkscape:current-layer="layer1" /><defs
     id="defs1" /><g
     inkscape:label="Calque 1"
     inkscape:groupmode="layer"
     id="layer1"
     transform="translate(-87.603054,-68.793982)"><path
       style="fill:#413d05;fill-opacity:1;stroke:none;stroke-width:0;stroke-dasharray:none;stroke-opacity:1"
       d="m 106.1442,104.30602 c -0.63886,-0.61354 -1.67715,-1.61039 -2.3073,-2.21523 -0.63014,-0.60484 -1.4741,-1.42399 -1.87544,-1.82032 l -0.72972,-0.720612 -0.30345,0.291144 c -0.16689,0.160128 -0.84547,0.826928 -1.507964,1.481788 -1.370681,1.3549 -1.291091,1.27999 -1.163849,1.09548 0.188688,-0.27361 2.172913,-4.106691 2.154483,-4.161981 -0.0224,-0.06731 -0.864262,-0.7968 -0.919912,-0.797154 -0.0875,-3.18e-4 -0.475338,0.34392 -2.124113,1.886627 -0.333605,0.312144 -0.707651,0.657218 -0.831209,0.766818 -0.123558,0.10961 -0.23538,0.20939 -0.24849,0.22175 -0.01314,0.0124 -0.140634,0.13367 -0.283374,0.26958 l -0.259536,0.24711 0.309114,-0.47176 c 0.469986,-0.717292 1.090925,-1.736782 1.874543,-3.077727 0.38991,-0.667217 0.716873,-1.222073 0.726599,-1.233017 0.0097,-0.01092 0.13341,0.09251 0.27486,0.229878 0.278274,0.270264 0.839976,0.744179 1.720668,1.451753 1.1307,0.908435 2.30934,1.954277 4.75935,4.223113 1.32934,1.23105 1.67631,1.54594 1.84424,1.67378 0.0577,0.0439 0.12659,-0.002 0.40587,-0.27076 0.185,-0.17802 0.79955,-0.73815 1.36565,-1.24474 0.56611,-0.50659 1.2832,-1.15362 1.59353,-1.43785 0.99474,-0.91105 2.12072,-1.907848 2.21693,-1.962574 0.0735,-0.04182 0.11913,-0.03978 0.21421,0.0094 0.1198,0.06195 0.12755,0.0561 0.89731,-0.677369 0.42707,-0.406926 0.87507,-0.815046 0.99556,-0.906936 l 0.21908,-0.16707 -0.1689,-0.141797 -0.1689,-0.141804 -0.24796,0.158292 c -0.35762,0.228293 -2.48269,1.692106 -2.85391,1.965856 -0.33755,0.248916 -0.67858,0.538734 -1.79702,1.527142 -1.01823,0.89984 -1.78316,1.59784 -2.23352,2.03808 l -0.39119,0.38238 -0.73207,-0.71615 c -0.87742,-0.85834 -1.67169,-1.58436 -2.37203,-2.168222 -0.28418,-0.236922 -0.79976,-0.675702 -1.14572,-0.975072 -0.57013,-0.493349 -1.58634,-1.328219 -3.19005,-2.620804 -0.321258,-0.258924 -0.811962,-0.671988 -1.09047,-0.917915 l -0.506381,-0.447138 -0.167574,0.1131 c -0.09217,0.06221 -0.612384,0.481055 -1.156043,0.930773 -1.729403,1.430585 -2.892273,2.363435 -4.5155,3.622306 -0.120654,0.09358 -0.10381,0.06535 0.07239,-0.12132 0.683263,-0.723834 2.373108,-2.715034 3.54287,-4.174683 0.768978,-0.959544 0.908268,-1.157298 0.851244,-1.208568 -0.188592,-0.16959 -0.726486,-0.622739 -0.771936,-0.650315 -0.03504,-0.02124 -0.382482,0.13422 -0.898601,0.40212 -0.462824,0.240233 -1.154885,0.597563 -1.537918,0.794063 -1.180369,0.605544 -1.814272,0.942209 -1.943234,1.032047 -0.287506,0.200286 -0.0708,-0.0012 0.763817,-0.710861 1.625736,-1.381967 2.098037,-1.790441 2.392491,-2.069159 l 0.29209,-0.276498 -0.381904,-0.356855 C 94.300191,91.785551 92.30346,89.998962 91.681921,89.46288 90.954565,88.835539 90.554432,88.477849 89.217177,87.259585 88.552604,86.65415 87.917556,86.077053 87.805959,85.977147 l -0.202905,-0.181644 0.916842,-0.719325 c 0.925588,-0.726191 1.147714,-0.898974 3.747452,-2.915024 1.62593,-1.260878 1.948278,-1.517671 1.951917,-1.554944 0.0014,-0.0144 -0.06316,-0.04797 -0.143472,-0.07462 -0.08031,-0.02664 -0.560509,-0.219299 -1.067093,-0.428098 -0.506592,-0.208801 -1.001948,-0.405982 -1.100794,-0.438185 -0.408305,-0.133014 0.0095,-0.07342 1.710397,0.243948 0.986793,0.184131 2.117665,0.387782 2.513053,0.452561 0.395388,0.06478 0.774486,0.135941 0.842442,0.158133 0.174773,0.05708 0.154925,-0.0028 -0.09196,-0.277097 -0.11853,-0.131727 -0.497634,-0.572577 -0.842442,-0.979663 -0.344808,-0.407087 -0.990863,-1.134166 -1.43567,-1.615734 -0.44481,-0.481566 -0.788527,-0.863187 -0.763816,-0.848047 0.200684,0.122952 4.845526,1.036346 4.865578,0.9568 0.02532,-0.100331 -0.835211,-2.263359 -1.337777,-3.362761 -0.07747,-0.169468 -0.134502,-0.314471 -0.12675,-0.322227 0.0201,-0.02014 2.028167,0.875904 2.633489,1.175133 0.27947,0.138146 0.51751,0.241783 0.52899,0.230304 0.0115,-0.01148 0.11268,-0.342211 0.22488,-0.734957 0.4498,-1.574468 0.89995,-2.98086 0.97958,-3.060487 0.007,-0.0065 0.6163,0.584453 1.35505,1.313291 0.73875,0.728837 1.35386,1.325088 1.36691,1.325002 0.0131,-8.7e-5 0.0716,-0.207327 0.12998,-0.460537 0.27258,-1.181216 0.70111,-2.149591 1.43648,-3.246056 0.49783,-0.742289 1.37393,-1.869447 1.41243,-1.817176 0.008,0.01098 0.12707,0.151384 0.2644,0.312011 1.37513,1.608348 2.27305,3.07162 2.80644,4.573429 0.0457,0.128763 0.0936,0.233861 0.10631,0.233553 0.0245,-6.6e-4 0.52096,-0.545662 1.5751,-1.729257 0.80832,-0.907587 0.79958,-0.898424 0.82909,-0.868917 0.0317,0.03172 0.62774,2.121719 0.94612,3.31762 0.13487,0.506588 0.26428,0.965181 0.28757,1.019096 0.0415,0.09599 0.052,0.09264 0.50855,-0.161739 0.54282,-0.302462 2.47889,-1.306661 2.51921,-1.306661 0.0151,0 0.005,0.0556 -0.0213,0.123558 -0.21554,0.5463 -1.2788,3.788242 -1.23747,3.773115 0.40898,-0.149676 4.2682,-1.155924 4.43327,-1.155924 0.0934,0 0.0917,0.0074 -0.0389,0.168489 -0.0752,0.09267 -0.44155,0.542533 -0.81418,0.999697 -1.98829,2.439313 -2.12886,2.619923 -2.01851,2.593332 0.0598,-0.01443 0.57376,-0.110472 1.14213,-0.213472 0.56836,-0.102994 1.6385,-0.31643 2.37807,-0.474302 0.73958,-0.157867 1.35203,-0.279686 1.36101,-0.270709 0.009,0.009 -0.0704,0.05081 -0.17649,0.09296 -0.43121,0.171367 -2.05662,1.118872 -2.05721,1.199219 -3.2e-4,0.05792 1.25582,1.110285 3.47846,2.913918 0.56337,0.457166 1.53484,1.245692 2.15882,1.75228 0.62397,0.506591 1.22828,0.986367 1.34293,1.06617 0.11463,0.0798 0.20842,0.164138 0.20842,0.187409 0,0.05351 -1.39197,1.310961 -2.49061,2.249913 -0.32647,0.279023 -1.95871,1.716286 -2.60351,2.29252 -0.34566,0.308892 -0.94321,0.84252 -1.3279,1.185833 -0.38469,0.343314 -0.70531,0.638946 -0.71249,0.656976 -0.007,0.018 0.37697,0.34263 0.85367,0.721355 1.08506,0.862038 1.69557,1.368276 1.60809,1.333416 -0.098,-0.03906 -1.75017,-0.816738 -2.90842,-1.369026 l -0.99889,-0.476297 -0.28163,0.216936 c -0.15489,0.119316 -0.33452,0.265307 -0.39917,0.324425 l -0.11754,0.10749 0.54438,0.731154 c 0.29941,0.402144 0.82212,1.113659 1.16158,1.581155 0.78758,1.084619 1.55824,2.087188 2.00033,2.602264 0.19088,0.222408 0.28433,0.353832 0.20767,0.29205 -0.59576,-0.48003 -2.99647,-2.5471 -4.00326,-3.446896 -0.45024,-0.40239 -0.84451,-0.731441 -0.87615,-0.731225 -0.0317,1.62e-4 -0.17145,0.09794 -0.31071,0.217158 -0.13926,0.119207 -0.30811,0.256751 -0.37522,0.305633 l -0.12202,0.08889 0.31895,0.636696 c 0.32573,0.650219 1.28953,2.466628 1.3519,2.547838 0.019,0.02472 0.1822,0.31788 0.36272,0.651492 0.18052,0.3336 0.39815,0.717758 0.48362,0.853678 l 0.1554,0.24711 -0.14578,-0.13479 c -0.1222,-0.11299 -1.48273,-1.512778 -2.93602,-3.020733 -0.23145,-0.240156 -0.3765,-0.358326 -0.41363,-0.336984 -0.13849,0.0796 -0.83322,0.713922 -0.85456,0.780234 -0.0226,0.07018 0.1842,0.591821 0.54082,1.364369 0.0913,0.197688 0.35791,0.794144 0.59257,1.325444 0.23466,0.5313 0.49917,1.09742 0.58781,1.25805 0.15177,0.27504 0.0832,0.21281 -1.17821,-1.06864 -0.73665,-0.74838 -1.37775,-1.38124 -1.42465,-1.406338 -0.1209,-0.06471 -0.0551,-0.120648 -1.58791,1.351318 -1.80385,1.73233 -3.16565,3.04983 -3.87061,3.74473 l -0.81536,0.80371 z m 1.34139,-2.34085 c 0.0937,-0.0915 0.17038,-0.18992 0.17038,-0.21868 0,-0.0518 -0.32355,-0.28891 -0.39429,-0.28891 -0.0202,0 -0.113,0.0781 -0.20617,0.17348 l -0.1694,0.17349 0.19398,0.16262 c 0.10668,0.0894 0.20323,0.163 0.21455,0.16349 0.0113,3.2e-4 0.0972,-0.074 0.19095,-0.16549 z m 1.04101,-0.94965 c 0.0155,-0.0331 -0.0101,-0.10887 -0.0569,-0.1684 l -0.0851,-0.10825 -0.26945,0.19835 c -0.14818,0.10909 -0.28399,0.2219 -0.30178,0.25068 -0.0183,0.0296 0.0218,0.10889 0.0927,0.18285 l 0.12503,0.13051 0.23368,-0.2128 c 0.12853,-0.11703 0.24639,-0.23985 0.2619,-0.27294 z m -1.67937,0.14701 c 0,-0.0295 -0.11349,-0.13928 -0.25219,-0.244 l -0.2522,-0.19041 -0.13169,0.13169 -0.13169,0.1317 0.25217,0.23849 0.25218,0.23849 0.13171,-0.12618 c 0.0724,-0.0694 0.13171,-0.15031 0.13171,-0.17978 z m 1.44692,-0.90683 c 0.49614,-0.38921 1.16713,-0.914888 1.49109,-1.168184 0.32396,-0.25329 0.75383,-0.611729 0.95527,-0.796535 0.42945,-0.393996 1.30183,-1.013082 3.63784,-2.581613 2.14562,-1.440695 3.32815,-2.271802 4.12829,-2.901448 0.70454,-0.554405 0.92058,-0.713141 0.93843,-0.689507 0.0287,0.03798 -1.51131,1.462109 -1.8595,1.719623 -0.21005,0.155351 -1.34229,0.925685 -2.5161,1.711858 -1.89962,1.272306 -2.83385,1.928561 -3.25744,2.288231 -0.24883,0.211278 -0.0185,0.116634 0.53916,-0.221532 0.39213,-0.237798 1.39338,-0.824891 2.33637,-1.369973 1.31682,-0.761154 1.81606,-1.141067 2.92048,-2.222459 0.34596,-0.338747 1.02328,-0.932009 1.50516,-1.318349 0.84279,-0.675707 1.32616,-1.089839 2.57918,-2.209738 0.81168,-0.725442 1.73569,-1.535249 2.21323,-1.939661 0.66337,-0.561792 1.63263,-1.433119 1.63263,-1.467671 0,-0.03377 -0.70017,-0.664522 -1.23559,-1.113071 -0.28541,-0.239108 -3.03389,-2.583779 -3.68428,-3.14299 -0.56833,-0.488648 -1.09981,-0.919755 -1.13329,-0.919251 -0.0192,3.18e-4 -0.1974,0.156982 -0.39602,0.348209 -0.36857,0.354864 -0.82417,0.909314 -0.74721,0.909314 0.0235,0 0.14016,-0.06719 0.25933,-0.149322 l 0.21668,-0.149316 1.0177,0.879437 c 0.55974,0.483688 1.66044,1.444534 2.44601,2.135212 l 1.42831,1.255777 -0.22032,0.199928 c -0.12117,0.109963 -0.48458,0.424372 -0.80759,0.698692 -0.323,0.27432 -0.8588,0.743634 -1.19065,1.04292 -0.33186,0.299291 -1.08862,0.963461 -1.6817,1.475939 -0.59308,0.512477 -1.10678,0.958937 -1.14155,0.992135 -0.0539,0.05148 -0.0396,0.08396 0.0972,0.220794 l 0.16043,0.160428 -1.60237,1.236911 c -1.59466,1.230959 -2.63596,1.950485 -5.84845,4.041183 -1.41292,0.919536 -3.1965,2.190605 -3.92557,2.797549 l -0.21897,0.1823 -0.63117,-0.475312 c -0.65014,-0.489594 -1.61843,-1.154286 -3.64856,-2.504615 -1.71472,-1.140533 -2.67857,-1.799944 -3.330078,-2.278276 -0.318372,-0.233742 -0.831588,-0.604008 -1.140485,-0.822804 -0.751362,-0.532205 -1.454376,-1.063199 -2.312531,-1.746671 -0.391044,-0.311453 -0.749466,-0.566273 -0.796487,-0.566273 -0.04704,0 -0.145488,0.03102 -0.218814,0.06894 -0.109386,0.05658 -0.125376,0.08376 -0.08911,0.151524 0.111444,0.208242 1.474289,1.272089 3.469515,2.708338 2.06892,1.489307 2.26889,1.630445 3.67664,2.59507 2.45599,1.682903 2.96787,2.043197 3.47354,2.444879 0.52824,0.41962 1.55931,1.19703 1.5876,1.19703 0.0119,0 0.4276,-0.31844 0.92374,-0.70765 z m 11.42038,-8.888247 c 0.12067,-0.111042 0.23056,-0.19074 0.24419,-0.177114 0.0391,0.03906 -0.31669,0.382782 -0.3941,0.380796 -0.0416,-0.0012 0.0185,-0.08272 0.14991,-0.203682 z m 0.56686,-0.463836 c 0,-0.04422 0.29947,-0.319169 0.34766,-0.319169 0.0165,0 -0.049,0.08088 -0.14547,0.179724 -0.18728,0.191783 -0.20219,0.202067 -0.20219,0.139445 z m 0.74754,-0.671771 c -0.0405,-0.0447 -0.0736,-0.09443 -0.0736,-0.110478 0,-0.01608 0.13433,-0.139974 0.29852,-0.2754 0.24391,-0.201198 0.31376,-0.238062 0.3819,-0.201594 0.0458,0.02454 0.0834,0.06206 0.0834,0.08335 0,0.0213 -0.13875,0.161736 -0.30833,0.312078 -0.29378,0.260454 -0.31179,0.269514 -0.3819,0.192042 z m 0.92049,-0.84696 c -0.0533,-0.05754 -0.0287,-0.100188 0.17819,-0.309725 0.13198,-0.133644 0.25196,-0.242994 0.26661,-0.242994 0.0146,0 0.0659,0.03 0.11386,0.06665 0.0837,0.064 0.0783,0.07474 -0.13743,0.270126 -0.30254,0.274013 -0.34657,0.296585 -0.42123,0.215939 z m 1.16258,-1.045157 c 0.26326,-0.231366 0.33766,-0.232548 0.11233,-0.0018 -0.0965,0.09884 -0.20678,0.179664 -0.24501,0.179598 -0.0404,-7.2e-5 0.0151,-0.07442 0.13268,-0.177804 z m 0.62446,-0.479052 c -0.051,-0.06148 -0.0407,-0.08519 0.0729,-0.167844 0.0728,-0.05292 0.25988,-0.204371 0.41575,-0.336521 0.33273,-0.282086 0.35,-0.232294 -0.24709,-0.712538 -0.22922,-0.184356 -0.41675,-0.349859 -0.41675,-0.367789 0,-0.01793 0.0293,-0.07185 0.065,-0.119815 0.0617,-0.08275 0.0904,-0.06195 0.56163,0.406251 0.27314,0.271409 0.49662,0.50878 0.49662,0.527493 0,0.03624 -0.57692,0.597135 -0.77218,0.750717 -0.10573,0.08317 -0.12199,0.08502 -0.17592,0.02004 z m -0.88156,-2.144496 c -0.14724,-0.139119 -0.19843,-0.217688 -0.17744,-0.272367 0.0251,-0.06551 0.0418,-0.06815 0.11282,-0.01789 0.23461,0.165958 0.41742,0.360821 0.39451,0.420521 -0.0403,0.10503 -0.10999,0.07751 -0.32989,-0.130255 z m -0.40843,-0.481242 c 0.0108,-0.03243 0.0462,-0.06782 0.0786,-0.07863 0.0337,-0.01126 0.0505,0.0056 0.0393,0.03931 -0.0108,0.03243 -0.0462,0.06782 -0.0786,0.07863 -0.0337,0.01123 -0.0505,-0.0056 -0.0393,-0.03931 z m -0.53702,-0.382147 c -0.0923,-0.08817 -0.12739,-0.140571 -0.078,-0.116452 0.098,0.04781 0.32692,0.276754 0.27676,0.276754 -0.017,0 -0.10648,-0.07214 -0.19879,-0.160302 z m -0.65083,-0.534028 c -0.17089,-0.194367 -0.19947,-0.249205 -0.12988,-0.249205 0.07,0 0.45656,0.366523 0.4307,0.408358 -0.0477,0.07717 -0.13248,0.03232 -0.30082,-0.159153 z m -0.76756,-0.705997 c -0.14211,-0.121471 -0.20045,-0.199428 -0.17116,-0.228713 0.0293,-0.02929 0.0877,-0.01359 0.17145,0.0461 0.19863,0.141575 0.30575,0.276454 0.25771,0.324487 -0.0266,0.0266 -0.12282,-0.02632 -0.258,-0.14188 z m -0.92856,-0.671291 c -0.16062,-0.125232 -0.29817,-0.254112 -0.30565,-0.286401 -0.0132,-0.05712 0.21177,-0.247936 0.29237,-0.247936 0.0221,0 0.0644,0.02413 0.0938,0.0536 0.0415,0.04153 0.0233,0.06636 -0.0809,0.11016 -0.17728,0.07454 -0.16969,0.157223 0.0288,0.313901 0.31231,0.246525 0.35315,0.28415 0.30848,0.284253 -0.0247,5.9e-5 -0.17636,-0.102353 -0.33698,-0.227584 z m -10.27225,17.466994 0.30884,-0.28177 -0.0752,-0.145328 -0.0752,-0.145338 -0.16629,0.131838 c -0.0914,0.07251 -0.25649,0.211958 -0.36676,0.309888 l -0.20047,0.17806 0.078,0.11898 c 0.0429,0.0654 0.10276,0.11818 0.13308,0.1172 0.0303,-10e-4 0.1941,-0.12856 0.36396,-0.28353 z m -3.4491,0.16174 c 0.0328,-0.0433 0.0603,-0.10216 0.0611,-0.13092 0.001,-0.0565 -0.54545,-0.509338 -0.61515,-0.509338 -0.0232,0 -0.0686,0.04926 -0.10078,0.109478 -0.0663,0.12385 -0.0711,0.11674 0.28697,0.42662 0.23608,0.20433 0.28194,0.21732 0.36784,0.10416 z m 4.34689,-0.937582 c 0.24607,-0.226548 0.29854,-0.299598 0.29854,-0.415602 0,-0.07741 -0.018,-0.140748 -0.04,-0.140748 -0.0541,0 -0.54576,0.36711 -0.65112,0.486222 -0.0741,0.08375 -0.0775,0.11262 -0.0275,0.233208 0.0314,0.0757 0.0715,0.13182 0.0893,0.12471 0.0178,-0.0071 0.16662,-0.136614 0.33083,-0.28779 z m -5.46015,-0.161646 c -0.0823,-0.06907 -0.23955,-0.186474 -0.34946,-0.260904 -0.17968,-0.121698 -0.20676,-0.128382 -0.26881,-0.06633 -0.0949,0.09488 -0.0379,0.175578 0.31275,0.442908 l 0.28639,0.218322 0.0844,-0.104208 c 0.084,-0.103782 0.0838,-0.104724 -0.0652,-0.229788 z m 2.55401,-0.31872 c -0.0451,-0.0294 -0.32817,-0.235176 -0.62902,-0.457206 -0.30085,-0.222023 -1.25336,-0.854729 -2.11669,-1.406009 -1.60437,-1.024469 -4.05313,-2.689348 -5.259714,-3.576003 -1.593689,-1.171122 -2.106683,-1.556705 -2.772316,-2.083763 -0.772722,-0.611868 -0.768444,-0.60435 -0.463698,-0.813162 0.07968,-0.0546 0.18936,-0.146627 0.243744,-0.204515 l 0.09889,-0.105258 -0.462846,-0.427914 c -0.254568,-0.235356 -0.623879,-0.564228 -0.820691,-0.73083 -0.196812,-0.166607 -0.813479,-0.712463 -1.370372,-1.213013 -0.90285,-0.811515 -2.258536,-1.99266 -2.562627,-2.232703 l -0.112328,-0.08867 0.179723,-0.154797 c 0.09885,-0.08514 0.321252,-0.270487 0.494233,-0.411887 1.104853,-0.903129 2.987867,-2.490713 2.987867,-2.519098 0,-0.01863 -0.05816,-0.08963 -0.129248,-0.15773 l -0.129243,-0.123824 -0.252029,0.20528 c -0.138615,0.112901 -0.265886,0.205277 -0.282823,0.205277 -0.01694,0 -0.06777,0.03345 -0.112959,0.07436 -0.05275,0.04774 -0.08217,0.05501 -0.08217,0.02032 0,-0.05723 0.10287,-0.161143 0.479191,-0.484048 l 0.232072,-0.199128 0.273683,0.215623 0.273688,0.21562 -0.128308,0.112326 c -0.07057,0.06178 -0.470837,0.425712 -0.88948,0.808746 -0.753313,0.689229 -1.828287,1.660193 -2.123357,1.917906 l -0.152696,0.133366 0.287488,0.219078 c 0.158115,0.120496 0.600874,0.483952 0.983903,0.807683 0.383033,0.323734 1.00981,0.849444 1.39284,1.168241 0.383033,0.318804 1.124759,0.939438 1.648282,1.379195 0.523524,0.439758 0.966084,0.79956 0.983484,0.79956 0.0174,0 0.162917,-0.115272 0.323387,-0.256158 0.272202,-0.23898 0.285336,-0.25902 0.195936,-0.298914 -0.05268,-0.02352 -0.09583,-0.05802 -0.09583,-0.07671 0,-0.01866 0.136476,-0.140538 0.303282,-0.270791 0.345858,-0.270066 0.954761,-0.845952 0.954761,-0.902988 0,-0.07936 -0.458927,0.199548 -0.990125,0.601728 -0.30333,0.229662 -0.575346,0.435563 -0.604482,0.457577 -0.05268,0.03978 -0.345137,-0.193061 -1.464305,-1.165757 -0.807686,-0.701976 -2.709838,-2.328645 -2.864234,-2.449415 l -0.14768,-0.115513 0.527704,-0.446116 c 0.913279,-0.772079 1.19531,-1.014848 1.63419,-1.406699 0.600481,-0.536134 1.078332,-1.00595 1.078296,-1.060154 -1.8e-5,-0.02534 -0.23049,-0.288677 -0.512153,-0.585217 -0.446201,-0.46977 -0.522839,-0.532778 -0.59544,-0.489545 -0.04583,0.02728 -0.498138,0.381122 -1.005131,0.786282 -0.506995,0.405162 -1.153928,0.914227 -1.437625,1.131255 -1.136021,0.869051 -1.50347,1.159249 -2.196596,1.734794 -0.397643,0.330188 -0.722987,0.61439 -0.722987,0.631568 0,0.0377 0.991521,0.947534 2.064221,1.89415 0.910972,0.803904 2.202266,1.980281 2.879734,2.623463 0.596371,0.566195 1.371135,1.274585 1.750659,1.600685 0.401676,0.345132 2.285495,1.751813 3.212518,2.398846 0.420096,0.293214 0.905347,0.636888 1.078327,0.763716 0.17298,0.126828 0.9514,0.657521 1.72982,1.179323 2.58931,1.735703 3.53481,2.288164 4.62782,2.704066 0.47193,0.179574 0.74675,0.239178 0.56946,0.123498 z M 95.041511,90.19857 c -0.158203,-0.124686 -0.299102,-0.329394 -0.178137,-0.258828 0.0919,0.05364 0.391839,0.322518 0.391839,0.351288 0,0.0501 -0.07271,0.01866 -0.213702,-0.09246 z m -1.064992,-0.889218 c -0.303894,-0.276221 -0.309853,-0.285743 -0.211768,-0.338237 0.08787,-0.04704 0.122519,-0.03678 0.267764,0.07928 0.09176,0.07331 0.234704,0.203975 0.317655,0.290363 0.146131,0.152196 0.147969,0.158598 0.05912,0.206154 -0.05044,0.027 -0.09808,0.04854 -0.105887,0.04788 -0.0078,-6e-4 -0.154897,-0.129108 -0.326879,-0.285426 z m -0.962851,-0.802931 c -0.250656,-0.214626 -0.262273,-0.237714 -0.149915,-0.297846 0.06381,-0.03414 0.12664,0.0024 0.314943,0.18174 0.22375,0.213444 0.260659,0.307062 0.12106,0.307062 -0.03469,0 -0.163437,-0.08593 -0.286088,-0.190956 z m -0.69483,-0.727968 c -0.149758,-0.138791 -0.160077,-0.228797 -0.01778,-0.155213 0.152624,0.07894 0.25914,0.182831 0.232173,0.226469 -0.0386,0.06246 -0.08771,0.04614 -0.214377,-0.07126 z m -0.869373,-0.716794 c -0.143245,-0.133586 -0.247159,-0.256386 -0.230923,-0.272897 0.07478,-0.07602 0.660208,0.372621 0.604292,0.463099 -0.05402,0.08741 -0.10177,0.06308 -0.373369,-0.190202 z m -1.060072,-1.050762 c -0.09151,-0.09371 -0.166374,-0.183051 -0.166374,-0.198542 0,-0.01549 0.294457,-0.29201 0.654346,-0.614494 0.584535,-0.523776 0.663642,-0.580528 0.741467,-0.531925 0.04792,0.02992 0.08201,0.06768 0.07577,0.08391 -0.0063,0.01623 -0.196858,0.172547 -0.423586,0.347376 -0.22673,0.174825 -0.530009,0.427865 -0.673955,0.562297 l -0.261719,0.244437 0.131964,0.138661 c 0.07258,0.07626 0.122176,0.138661 0.110211,0.138661 -0.01195,0 -0.09662,-0.07667 -0.188127,-0.170383 z m 1.783497,-1.769054 c -0.01891,-0.03059 0.02198,-0.09687 0.09844,-0.159475 0.212222,-0.173782 0.272812,-0.197647 0.329226,-0.129678 0.03952,0.04762 0.01564,0.09167 -0.109173,0.201243 -0.168475,0.147923 -0.264947,0.17455 -0.318495,0.08791 z m 0.905208,-0.655033 c -0.02092,-0.05449 0.0084,-0.109196 0.09629,-0.179499 0.137917,-0.110367 0.184205,-0.12047 0.278481,-0.06076 0.04885,0.03095 0.0295,0.06921 -0.08986,0.177717 -0.174423,0.158563 -0.24234,0.173475 -0.284905,0.06255 z m 0.672268,-0.505201 c -0.01573,-0.02548 0.0021,-0.03299 0.04228,-0.01765 0.07784,0.02986 0.09208,0.06207 0.02745,0.06207 -0.02326,0 -0.05463,-0.01997 -0.06973,-0.04442 z M 108.2176,98.861928 c 0.62422,-0.284826 0.98366,-0.486677 1.63996,-0.920963 0.60983,-0.403536 0.66245,-0.4524 0.40062,-0.372078 -0.30195,0.09263 -0.37825,0.125904 -1.12376,0.489972 -0.64968,0.317268 -1.03143,0.565211 -1.45598,0.945659 -0.21622,0.193758 -0.17278,0.182268 0.53916,-0.14259 z m -4.47056,-0.0345 c 0,-0.05682 -0.51321,-0.470075 -0.58374,-0.470075 -0.0674,0 -0.0935,0.150786 -0.0357,0.206585 0.0318,0.03072 0.15768,0.137616 0.27975,0.23757 0.16827,0.137802 0.23617,0.169926 0.28082,0.13287 0.0324,-0.02688 0.0589,-0.07501 0.0589,-0.10695 z m 7.32363,-0.06686 c 0,-0.110496 -0.0797,-0.111798 -0.22042,-0.0036 -0.0707,0.05436 -0.0982,0.108966 -0.0794,0.157824 0.0263,0.0685 0.04,0.06888 0.16426,0.0048 0.0814,-0.04206 0.1356,-0.105588 0.1356,-0.158826 z m -3.28287,-0.287909 0.37696,-0.378924 -0.80479,-0.01422 c -0.44263,-0.0078 -0.81448,-0.0079 -0.82632,-1.62e-4 -0.0386,0.0252 0.74858,0.772229 0.81379,0.772229 0.0349,0 0.23303,-0.17052 0.44036,-0.378923 z m 0.67692,-0.672882 c 0.44262,-0.07907 0.83936,-0.26463 1.28051,-0.59889 0.36279,-0.274877 0.64129,-0.541751 0.5167,-0.495125 -0.0371,0.01386 -0.22637,0.08947 -0.42067,0.167982 -0.40345,0.163031 -1.36694,0.417989 -1.88371,0.498461 -0.50079,0.07798 -1.1204,0.03072 -1.73934,-0.13266 -0.6275,-0.165642 -1.37855,-0.450023 -1.68396,-0.637631 l -0.22558,-0.13857 0.35944,0.365832 c 0.6218,0.632855 1.12064,0.911939 1.76395,0.986861 0.50087,0.05832 1.66737,0.04902 2.03266,-0.01626 z m 0.13479,-0.72894 c 0.269,-0.06701 0.62621,-0.205463 0.96601,-0.374417 0.68794,-0.342072 0.94364,-0.53001 0.98199,-0.721734 0.0358,-0.179178 0.0382,-0.717527 0.003,-0.717527 -0.0142,0 -0.12104,0.09026 -0.23756,0.200579 -0.11651,0.110316 -0.32788,0.283674 -0.46972,0.385236 -0.32339,0.231576 -1.09742,0.602334 -1.42367,0.68193 -0.22662,0.05532 -0.25531,0.07696 -0.34593,0.26118 -0.0544,0.110496 -0.11239,0.257489 -0.12899,0.326669 -0.0344,0.143448 -0.10858,0.1482 0.65465,-0.04194 z m -1.99124,0.03972 c -0.0108,-0.01854 -0.053,-0.149957 -0.0938,-0.292043 -0.0408,-0.142092 -0.0989,-0.258366 -0.12906,-0.258384 -0.1133,-7.8e-5 -0.63607,-0.277962 -1.03412,-0.549708 -0.22677,-0.154806 -0.61128,-0.476214 -0.85449,-0.714227 -0.31003,-0.303426 -0.44963,-0.413322 -0.46713,-0.367722 -0.0137,0.03576 -0.0108,0.239502 0.006,0.452742 l 0.0315,0.387707 0.29523,0.270528 c 0.57613,0.527922 0.95926,0.768228 1.55605,0.975965 0.34035,0.118476 0.73458,0.172896 0.68933,0.09514 z m 0.97148,-0.252839 0.067,-0.19668 -0.36608,-0.0222 c -0.20133,-0.01224 -0.37017,-0.01902 -0.37518,-0.01512 -0.005,0.0042 0.0251,0.102402 0.067,0.218886 l 0.0762,0.211793 h 0.23201 0.23202 z m 0.45917,-0.680898 c 1.00791,-0.17577 2.19642,-0.907823 2.59954,-1.601183 0.10563,-0.181662 0.12018,-0.250542 0.10861,-0.513852 l -0.0134,-0.304067 -0.16885,0.274097 c -0.3638,0.590538 -1.16902,1.157652 -2.11741,1.491299 -0.43411,0.152712 -0.48168,0.159906 -1.06105,0.160398 -0.58849,3.18e-4 -0.61688,-0.0042 -0.95342,-0.149148 -0.62382,-0.269147 -1.24046,-0.728255 -2.04676,-1.523879 l -0.47264,-0.466391 0.0268,0.225792 c 0.0683,0.577145 0.28253,0.886373 1.03385,1.492649 1.04625,0.844265 1.93902,1.110593 3.06475,0.914285 z m 3.27318,-0.17193 c 2.87789,-1.760063 4.27756,-2.680924 5.64907,-3.716595 l 0.52934,-0.399726 -0.27822,-0.37566 c -0.15301,-0.206604 -0.55116,-0.774413 -0.88477,-1.261787 -0.97591,-1.425731 -1.26796,-1.801613 -1.39595,-1.796615 -0.0601,0.0024 -0.44282,0.0375 -0.85057,0.07808 -0.40774,0.04062 -0.83233,0.07911 -0.94353,0.08559 -0.19064,0.0111 -0.20251,0.0195 -0.20781,0.14658 -0.003,0.07414 0.005,0.201408 0.0175,0.282828 l 0.0231,0.148044 0.95278,-0.03114 0.95278,-0.03114 0.0295,0.215087 c 0.0163,0.118296 0.0292,0.459942 0.0288,0.75921 -10e-4,0.910751 -0.15213,1.351991 -0.62598,1.828973 -0.42721,0.430043 -1.05857,0.713699 -1.75466,0.788351 l -0.24712,0.02652 0.006,-2.030014 0.006,-2.030009 -0.0963,-0.03636 c -0.053,-0.01998 -0.18051,-0.05052 -0.28342,-0.06776 l -0.18709,-0.03138 -0.005,2.519392 -0.005,2.519399 0.21499,-3.18e-4 c 0.38781,-3.18e-4 1.07993,-0.129084 1.43706,-0.267024 0.52337,-0.202146 0.89704,-0.438054 1.24912,-0.788574 0.55439,-0.551945 0.81939,-1.211201 0.86364,-2.14846 l 0.0251,-0.530976 0.21045,0.396186 c 0.11574,0.217896 0.37738,0.653261 0.58142,0.967481 0.20403,0.314214 0.35933,0.590136 0.3451,0.613152 -0.04,0.06477 -1.64226,1.206557 -2.29528,1.635671 -0.32124,0.211098 -1.09966,0.698795 -1.72981,1.083767 l -1.14573,0.699954 -0.0276,-0.706902 c -0.0152,-0.388794 -0.0304,-1.561133 -0.0337,-2.605198 -0.004,-1.044072 -0.0212,-1.897385 -0.0398,-1.896257 -0.0185,0.0012 -0.12974,0.129636 -0.24711,0.285576 l -0.21342,0.28353 v 2.792146 c 0,1.535687 0.0126,2.792152 0.028,2.792152 0.0154,0 0.17209,-0.08813 0.34821,-0.195828 z m -7.69143,-3.257908 -0.0173,-2.712382 -0.2427,0.239682 -0.2427,0.239688 v 1.993114 1.993121 l -0.12356,-0.09656 c -0.068,-0.0531 -0.49761,-0.343452 -0.95478,-0.645221 -1.02981,-0.679764 -1.61153,-1.079652 -2.134182,-1.467095 -0.42717,-0.316662 -1.585427,-1.360026 -1.625387,-1.464162 -0.01332,-0.0348 0.15501,-0.275567 0.389111,-0.556415 0.226956,-0.272292 0.417288,-0.495072 0.422958,-0.495072 0.0054,0 0.0018,0.119718 -0.0089,0.26604 -0.01056,0.146322 0.0054,0.439314 0.0354,0.65109 0.137562,0.969083 0.734454,1.573775 1.79777,1.821262 0.54061,0.125832 1.59886,0.316872 1.75528,0.316872 h 0.13179 l -1.5e-4,-1.718585 c -1.3e-4,-0.945221 -0.0133,-1.915342 -0.0292,-2.155822 -0.0274,-0.413436 -0.0341,-0.436194 -0.12333,-0.418056 -0.0519,0.01056 -0.19041,0.03168 -0.30779,0.04686 l -0.21342,0.02766 0.004,1.244063 c 0.002,0.684234 0.0176,1.441205 0.0337,1.682165 0.021,0.314964 0.0148,0.43809 -0.022,0.438066 -0.12981,-7.8e-5 -0.83188,-0.14778 -1.09453,-0.230268 -0.5768,-0.181158 -1.057068,-0.535566 -1.279848,-0.944442 -0.166122,-0.304901 -0.209994,-0.870083 -0.0975,-1.255967 0.0531,-0.182244 0.458228,-0.908801 0.595958,-1.068881 0.008,-0.0096 0.23293,0.0249 0.49929,0.07655 1.06327,0.206322 1.27279,0.168276 0.6892,-0.125142 -0.35898,-0.180498 -0.7798,-0.5367 -0.95707,-0.810113 l -0.0728,-0.112326 -0.613618,0.629021 c -0.587316,0.602058 -1.350215,1.428983 -2.109797,2.286845 -0.343506,0.387953 -0.351348,0.401897 -0.265494,0.471767 0.04866,0.0396 0.320136,0.275442 0.603276,0.524094 1.040681,0.913925 1.915403,1.575527 3.502663,2.649268 0.58072,0.392844 1.28671,0.871716 1.56886,1.064154 0.28215,0.192438 0.51539,0.344849 0.5183,0.338699 0.003,-0.0061 -0.002,-1.231763 -0.0119,-2.723572 z m 4.0059,1.297079 c 0.16277,-0.531293 0.34499,-1.109711 0.40494,-1.285355 l 0.10901,-0.319368 -0.40644,-0.0288 c -0.54561,-0.03876 -1.1115,-0.03654 -1.1115,0.0042 0,0.0414 0.58183,2.570231 0.61261,2.662631 0.02,0.05988 0.0265,0.05988 0.0589,0 0.0201,-0.03708 0.16967,-0.502098 0.33243,-1.033398 z m 1.55814,0.78336 c 0.0548,-0.144222 0.0592,-3.119734 0.004,-3.119734 -0.0217,0 -0.10249,0.01266 -0.17972,0.02808 l -0.14041,0.02808 v 1.589411 1.589411 h 0.13591 c 0.10454,0 0.14601,-0.02658 0.17972,-0.115254 z m -3.23608,-1.453637 c 0,-0.838176 0.0122,-1.555937 0.0273,-1.595027 0.0227,-0.0591 -0.0114,-0.07107 -0.20219,-0.07107 h -0.22946 v 1.474115 c 0,1.545005 0.001,1.554071 0.20218,1.664057 0.20562,0.112458 0.20219,0.137364 0.20219,-1.472075 z m 8.04786,-1.668827 c 0.31236,-0.159348 0.62368,-0.656988 0.62368,-0.996917 0,-0.379818 -0.42574,-0.910038 -0.81826,-1.019064 -0.27757,-0.07709 -0.55521,-0.03276 -0.81106,0.12948 -0.15718,0.09968 -0.23628,0.196038 -0.34917,0.425352 -0.13195,0.268032 -0.14325,0.322344 -0.11776,0.566219 0.0354,0.338388 0.15392,0.57378 0.39132,0.776982 0.30806,0.263694 0.7097,0.3075 1.08125,0.117948 z m -0.75941,-0.516696 c -0.13856,-0.09705 -0.2344,-0.298932 -0.2344,-0.493769 0,-0.126576 0.0349,-0.198816 0.15276,-0.31674 0.13069,-0.130686 0.18349,-0.152766 0.36537,-0.152766 0.18558,0 0.23184,0.0204 0.36393,0.160458 0.12593,0.133518 0.15134,0.194616 0.15134,0.363936 0,0.171503 -0.024,0.227483 -0.15277,0.356243 -0.1272,0.1272 -0.18567,0.15276 -0.34944,0.15276 -0.10818,0 -0.24174,-0.03156 -0.29679,-0.07012 z m -4.96868,0.141144 c 0.43339,-0.13818 0.95082,-0.462552 1.35136,-0.847163 0.36151,-0.347148 0.56311,-0.611004 0.93031,-1.21764 l 0.29575,-0.488609 -0.25825,-0.277446 c -0.42751,-0.459294 -1.01355,-1.149994 -1.29109,-1.521678 -0.23847,-0.319367 -0.29337,-0.365437 -0.62522,-0.524539 -0.33276,-0.15954 -0.36501,-0.167159 -0.37798,-0.08931 -0.0208,0.125185 0.0999,0.561219 0.28762,1.038499 0.1113,0.282994 0.16682,0.498916 0.17046,0.66289 l 0.005,0.243192 -0.22206,0.11625 c -0.12213,0.06394 -0.22798,0.136476 -0.23523,0.161184 -0.007,0.02472 0.13313,0.20271 0.31192,0.395556 0.27848,0.300341 0.35086,0.354041 0.50482,0.374501 0.30726,0.04086 0.30873,0.0432 0.16129,0.257466 -0.21127,0.307068 -0.70012,0.730776 -0.93935,0.814182 -0.27944,0.09742 -1.10766,0.135828 -1.55562,0.07214 -0.51758,-0.07357 -0.7817,-0.258258 -1.29905,-0.90837 l -0.16524,-0.207636 0.22938,-0.02208 c 0.21709,-0.02088 0.24956,-0.04212 0.6056,-0.396299 0.41057,-0.408432 0.41319,-0.422466 0.105,-0.561444 -0.18443,-0.08317 -0.18506,-0.08429 -0.16089,-0.287754 0.0133,-0.11235 0.11643,-0.491747 0.22907,-0.843123 0.11264,-0.351371 0.21831,-0.72332 0.23482,-0.826554 l 0.03,-0.187695 -0.13035,0.03186 c -0.1886,0.0461 -0.60786,0.242379 -0.70831,0.3316 -0.0474,0.04209 -0.33824,0.37635 -0.64634,0.742802 -0.30809,0.366456 -0.67464,0.791046 -0.81455,0.943542 -0.41191,0.448956 -0.39466,0.396816 -0.22908,0.691998 0.56174,1.001447 1.45421,1.917262 2.18388,2.241004 0.61521,0.272964 1.34361,0.304896 2.02191,0.08863 z m 10.30564,-0.672593 c 0.18534,-0.149988 0.98397,-0.80955 1.77474,-1.465691 0.79078,-0.656148 1.65558,-1.373154 1.92179,-1.593341 0.38112,-0.31524 0.47186,-0.411487 0.42684,-0.452765 -0.0314,-0.02883 -0.44133,-0.372567 -0.91086,-0.763859 -0.46951,-0.391293 -1.2075,-1.016139 -1.63995,-1.388552 -0.88675,-0.763634 -1.50289,-1.281497 -1.789,-1.503666 l -0.19398,-0.15062 -0.17799,0.173806 c -0.0979,0.09559 -0.17236,0.196244 -0.16547,0.223673 0.007,0.02742 0.37646,0.371011 0.82127,0.763525 0.44481,0.392516 1.11295,0.987129 1.48476,1.321361 0.37181,0.334232 0.88233,0.789211 1.13449,1.011063 0.25217,0.221848 0.45848,0.41768 0.45848,0.435182 0,0.0175 -0.15669,0.158912 -0.34821,0.314256 -0.19152,0.155333 -0.70204,0.576983 -1.1345,0.937001 -0.43245,0.360012 -1.16032,0.956009 -1.61748,1.324439 -1.30643,1.052843 -1.17131,0.919422 -1.09145,1.077677 0.0377,0.07474 0.1098,0.181008 0.16021,0.236148 l 0.0916,0.100248 0.22885,-0.163596 c 0.12586,-0.08998 0.38048,-0.286314 0.56582,-0.436289 z m -17.16227,0.365687 c 0.30091,-0.152196 0.45447,-0.402995 0.48196,-0.787169 0.0257,-0.358848 -0.0255,-0.552426 -0.2152,-0.81432 -0.17549,-0.242267 -0.43946,-0.373145 -0.75844,-0.376049 -0.28706,-0.0024 -0.45696,0.07159 -0.66135,0.288821 -0.382852,0.406914 -0.425968,0.981708 -0.1067,1.422438 0.26028,0.359327 0.83542,0.480893 1.25973,0.266279 z m -0.66654,-0.451481 c -0.34419,-0.199104 -0.36808,-0.687006 -0.0433,-0.885006 0.20102,-0.122556 0.40273,-0.114924 0.5647,0.02136 0.27041,0.227532 0.28472,0.54954 0.0349,0.784266 -0.12936,0.121536 -0.41329,0.162048 -0.55622,0.07937 z m 7.87331,-0.63945 c 0.0797,-0.0378 0.21353,-0.126054 0.29739,-0.196062 l 0.15246,-0.127284 -0.40293,-0.03384 c -0.22161,-0.0186 -0.9932,-0.0264 -1.71463,-0.01734 l -1.31171,0.0165 0.12106,0.129252 c 0.27908,0.29799 0.27512,0.297234 1.55203,0.29742 0.94987,1.38e-4 1.18779,-0.01236 1.30633,-0.0686 z m 9.11571,-0.391764 c 1.19247,-0.998255 2.63099,-2.264639 2.62335,-2.309436 -0.009,-0.05313 -0.87983,-0.885542 -2.35731,-2.25348 l -0.83981,-0.777538 -0.1132,0.132959 c -0.0623,0.07312 -0.19147,0.225906 -0.28713,0.339508 l -0.17394,0.206556 0.2638,0.303201 c 0.14508,0.166763 0.60125,0.637257 1.0137,1.045544 l 0.74991,0.74234 -0.91366,0.491756 -0.91368,0.491759 0.25012,0.284892 c 0.33021,0.37611 0.37946,0.400062 0.56159,0.273078 0.37911,-0.264336 1.69539,-1.260669 1.72167,-1.303185 0.0165,-0.02668 -0.34709,-0.425296 -0.81714,-0.895836 -0.63936,-0.640024 -0.83418,-0.860429 -0.79508,-0.899531 0.0391,-0.0391 0.27295,0.166394 0.95439,0.838682 0.49642,0.489761 0.8971,0.905713 0.8904,0.924341 -0.007,0.01863 -0.11712,0.110894 -0.24537,0.205041 -0.12824,0.09415 -0.60898,0.47035 -1.0683,0.836008 l -0.83512,0.664824 -0.50258,-0.462636 c -0.27641,-0.254454 -0.66008,-0.612798 -0.85261,-0.796319 l -0.35004,-0.333682 0.23217,-0.126963 c 0.1277,-0.06983 0.38145,-0.239322 0.56391,-0.37665 l 0.33172,-0.249679 -0.22314,-0.255678 c -0.12274,-0.140619 -0.32751,-0.356769 -0.45506,-0.480325 l -0.2319,-0.224653 -0.17901,0.202187 c -0.0984,0.111201 -0.26985,0.306837 -0.3809,0.434738 l -0.20189,0.232551 0.2048,0.188775 c 0.11264,0.103827 0.2048,0.20212 0.2048,0.218427 0,0.0163 -0.0584,0.03409 -0.12969,0.03953 -0.0913,0.007 -0.17298,-0.03056 -0.27575,-0.126554 -0.0803,-0.07504 -0.14934,-0.130789 -0.15336,-0.123883 -0.004,0.0069 -0.12255,0.146216 -0.26341,0.309581 -0.14087,0.163369 -0.25612,0.330604 -0.25612,0.37164 0,0.04103 0.0505,0.09764 0.11233,0.125788 0.0618,0.02816 0.11212,0.0631 0.11189,0.07766 -1.6e-4,0.01458 -0.071,0.11526 -0.15726,0.223763 -0.25039,0.314976 -0.23522,0.322194 0.38638,0.183732 l 0.40746,-0.09076 0.20747,0.236784 c 0.27606,0.315054 1.72903,1.786883 1.76399,1.786883 0.0151,0 0.20259,-0.146586 0.41661,-0.325746 z M 106.8023,89.229007 c 0.5973,-0.04446 1.23403,-0.02628 1.71129,0.04896 l 0.24318,0.03834 -0.35161,-0.331919 c -0.19339,-0.182556 -0.38216,-0.33192 -0.4195,-0.33192 -0.0373,0 -0.15789,0.06464 -0.2679,0.143646 -0.2556,0.183558 -0.43802,0.182796 -0.71851,-0.003 -0.15148,-0.100332 -0.22799,-0.126582 -0.28116,-0.09646 -0.13957,0.07908 -0.70154,0.636233 -0.61221,0.606971 0.0494,-0.0162 0.36282,-0.04974 0.69642,-0.07459 z m -8.777981,-1.661099 c 0.565128,-0.497639 1.134275,-1.004838 1.264775,-1.127112 l 0.23727,-0.222313 -0.402462,-0.434213 c -0.221352,-0.238819 -0.573251,-0.603092 -0.782009,-0.809501 -0.430254,-0.425423 -0.411462,-0.423425 -0.74649,-0.07945 l -0.198366,0.20367 0.108504,0.09275 c 0.126312,0.107963 0.91644,0.710854 1.061304,0.809807 0.09628,0.06576 0.08291,0.08046 -0.551694,0.606562 -0.357702,0.296539 -0.732492,0.604098 -0.832872,0.683469 l -0.182507,0.144309 -0.625464,-0.471474 c -0.70689,-0.532855 -1.658257,-1.316684 -1.658257,-1.36623 0,-0.03646 0.338858,-0.342035 1.138669,-1.026809 0.557742,-0.477523 0.591132,-0.490581 0.752094,-0.294248 0.05994,0.07311 0.05658,0.07307 -0.05658,-3.17e-4 l -0.120258,-0.07825 -0.329046,0.30703 c -0.180972,0.168871 -0.526914,0.486258 -0.768761,0.705304 -0.42974,0.389244 -0.43789,0.400299 -0.359437,0.487654 0.09846,0.109635 0.958032,0.759323 1.5531,1.173888 l 0.439428,0.306133 0.205151,-0.172786 c 0.11283,-0.09505 0.267756,-0.226005 0.344268,-0.291035 l 0.139122,-0.118231 -0.199608,-0.09969 c -0.363402,-0.181507 -1.704773,-0.962774 -1.704773,-0.99293 0,-0.01627 0.24768,-0.232875 0.550398,-0.481298 0.302718,-0.248426 0.671712,-0.563452 0.819977,-0.700057 l 0.26958,-0.248369 -0.426833,-0.404414 C 96.72778,83.44733 96.518188,83.26437 96.49678,83.263185 c -0.02142,-0.0011 -0.153606,0.103985 -0.293772,0.233722 -0.140166,0.129737 -0.743801,0.646319 -1.341411,1.147964 -0.597617,0.50164 -1.096302,0.927815 -1.108185,0.947046 -0.01189,0.01923 0.447109,0.447871 1.019993,0.952526 0.572882,0.504662 1.153219,1.021107 1.289629,1.147658 0.391392,0.363108 0.87435,0.779196 0.9054,0.780054 0.0156,3.18e-4 0.490739,-0.406374 1.055861,-0.904013 z m 9.833841,0.725081 c 0.2373,-0.140766 0.46256,-0.170232 0.67726,-0.0886 0.0668,0.02538 0.13159,0.03606 0.14394,0.0237 0.0124,-0.01236 -0.0359,-0.139284 -0.10733,-0.282072 -0.15041,-0.300905 -0.24987,-0.340151 -0.4884,-0.192726 l -0.155,0.0958 -0.0211,-0.103812 c -0.0206,-0.101183 -0.11827,-2.723197 -0.11725,-3.14738 l 3.1e-4,-0.212968 0.40357,-0.202684 c 0.8904,-0.447192 1.51988,-0.548125 3.13235,-0.502273 0.88357,0.02512 0.90826,0.02339 0.93641,-0.06529 0.0159,-0.05011 0.0153,-0.104737 -10e-4,-0.121411 -0.0167,-0.01669 -0.78177,-0.03028 -1.70023,-0.0302 -1.90062,1.28e-4 -2.19788,0.03063 -2.71314,0.278537 l -0.32655,0.1571 -0.3121,-0.161512 c -0.18779,-0.09718 -0.43396,-0.181259 -0.61809,-0.21109 -0.30715,-0.04976 -4.07226,-0.109665 -4.14306,-0.06591 -0.0205,0.0127 -0.0281,0.07149 -0.0168,0.130651 l 0.0206,0.107563 0.99557,-0.02188 c 1.12833,-0.02477 1.959,0.03278 2.45581,0.170229 0.18534,0.05127 0.54729,0.193351 0.80434,0.315734 l 0.46736,0.222523 -0.0289,0.504964 c -0.0159,0.277734 -0.04,0.959888 -0.0536,1.515899 -0.0136,0.556013 -0.0356,1.117815 -0.0488,1.248453 l -0.024,0.237521 -0.15538,-0.136428 c -0.18854,-0.165539 -0.24184,-0.168665 -0.41345,-0.0243 -0.11986,0.100854 -0.30789,0.457002 -0.26429,0.500598 0.01,0.0096 0.0907,-0.01314 0.18016,-0.05052 0.27528,-0.11502 0.48943,-0.0708 0.78944,0.16302 0.16289,0.126942 0.43463,0.107082 0.7016,-0.0513 z m 3.03392,-0.07712 c -0.27765,-0.32412 -1.2674,-1.316962 -1.36414,-1.368407 -0.0955,-0.05079 0.55078,0.666418 1.15222,1.278647 0.31809,0.32379 0.4661,0.386478 0.21192,0.08976 z m -6.75956,-0.293556 c 0.30453,-0.312659 0.75612,-0.813047 1.11542,-1.235936 0.18416,-0.216764 -0.0484,-0.09373 -0.41259,0.218309 -0.60972,0.522365 -1.29192,1.388301 -1.09374,1.388301 0.0164,0 0.19235,-0.166806 0.39091,-0.370674 z m 7.17409,-0.359645 c 0.0794,-0.311753 0.13213,-0.579017 0.11722,-0.593926 -0.0149,-0.01489 -0.28222,0.06954 -0.59403,0.187663 l -0.56693,0.214767 0.41357,0.415295 c 0.22746,0.228414 0.42983,0.399036 0.4497,0.379158 0.0199,-0.01986 0.10109,-0.29121 0.18047,-0.602957 z m -8.95961,0.368219 c 0.24135,-0.05178 0.55052,-0.280913 0.65414,-0.484855 0.0333,-0.06548 0.0752,-0.239725 0.0931,-0.387218 l 0.0326,-0.26817 -0.21282,0.236709 c -0.25541,0.284074 -0.48913,0.412298 -0.74909,0.410971 -0.42844,-0.0021 -0.84007,-0.347605 -0.93852,-0.787558 -0.0453,-0.202406 -0.0416,-0.273206 0.0245,-0.47715 0.13578,-0.418816 0.41937,-0.622084 0.86556,-0.620393 0.2553,0.0011 0.59672,0.113974 0.66162,0.218988 0.0684,0.110671 0.11874,0.03767 0.10864,-0.157515 -0.0195,-0.377158 -0.32548,-0.599649 -0.82463,-0.599649 -0.58078,0 -1.11658,0.450994 -1.30474,1.09823 -0.22418,0.771162 0.23758,1.59555 1.01047,1.804002 0.26035,0.07022 0.30976,0.07138 0.57912,0.01362 z m 1.88319,-0.652202 0.14097,-0.183089 -0.21788,-0.05584 c -0.11983,-0.0307 -0.37145,-0.132998 -0.55917,-0.227301 -0.27977,-0.140548 -0.3413,-0.157969 -0.3413,-0.09663 0,0.07348 0.30385,1.164116 0.34113,1.224434 0.0212,0.03432 0.41851,-0.378761 0.63625,-0.661578 z m 8.96949,0.6362 c 0.31695,-0.09538 0.58252,-0.337745 0.75553,-0.689489 0.13622,-0.276944 0.14826,-0.336137 0.14826,-0.728942 0,-0.406237 -0.008,-0.442056 -0.16104,-0.719565 -0.45825,-0.831 -1.40996,-1.046216 -1.95612,-0.442345 -0.10007,0.110643 -0.18528,0.622066 -0.10364,0.622066 0.0229,0 0.0417,-0.02008 0.0417,-0.04465 0,-0.07365 0.36061,-0.311646 0.54913,-0.362409 0.61137,-0.164623 1.28272,0.430614 1.18375,1.049547 -0.0389,0.243341 -0.17485,0.492085 -0.3493,0.639181 -0.42574,0.358975 -0.8526,0.326077 -1.29945,-0.100148 l -0.2597,-0.247705 -0.0304,0.121253 c -0.079,0.3149 0.23614,0.733744 0.66307,0.881194 0.28981,0.100086 0.53676,0.106734 0.81827,0.02202 z m -13.413312,-0.65874 0.375102,-0.359342 -0.215034,-0.189282 c -0.118272,-0.104105 -0.230676,-0.189284 -0.249792,-0.189284 -0.0492,0 -0.892278,0.692921 -0.89031,0.731758 0.0024,0.05005 0.46212,0.360547 0.537534,0.363157 0.03708,0.0012 0.236196,-0.159369 0.4425,-0.357007 z M 110.8651,86.884448 c 0.58168,-0.303144 0.76035,-0.432975 0.69112,-0.502206 -0.0154,-0.01538 -0.36486,0.136573 -0.77658,0.337693 -0.62645,0.306009 -0.73986,0.376202 -0.69505,0.430201 0.0295,0.03549 0.0763,0.06359 0.10421,0.06245 0.0279,-0.0011 0.3322,-0.148806 0.6763,-0.328134 z m 2.18896,0.03197 c 0.16127,-0.154498 0.20113,-0.356868 0.11222,-0.569663 -0.0738,-0.176703 -0.30234,-0.344786 -0.46911,-0.345057 -0.25782,-3.18e-4 -0.50324,0.26282 -0.50324,0.539786 0,0.150817 0.1281,0.355711 0.283,0.452648 0.18527,0.115948 0.40602,0.08623 0.57713,-0.07771 z m -10.63971,-0.01595 c 0.26205,-0.230087 0.24318,-0.579867 -0.0435,-0.805816 -0.27741,-0.218659 -0.73557,0.01902 -0.73557,0.381584 0,0.468111 0.44998,0.71315 0.77904,0.424232 z m 2.1333,-0.04721 c -0.0268,-0.08032 -1.38471,-0.767544 -1.38471,-0.70078 0,0.08416 0.47293,0.407674 0.86462,0.591456 0.32345,0.151766 0.55012,0.19941 0.52009,0.109324 z m 6.16166,-0.293536 c 0.60555,-0.305989 0.90053,-0.517926 0.90053,-0.646993 0,-0.02032 -0.42332,0.177279 -0.94071,0.439153 -0.51739,0.261874 -0.93068,0.492359 -0.91842,0.512195 0.0601,0.09722 0.33941,0.0085 0.9586,-0.304355 z m -5.88897,0.07489 c 0.0752,-0.04763 -0.0466,-0.129314 -0.82618,-0.554027 -0.9148,-0.498373 -0.89305,-0.490373 -0.84616,-0.311067 0.0287,0.109547 0.61785,0.479369 1.1958,0.750562 0.3534,0.165828 0.38395,0.17317 0.47654,0.114532 z m 9.96202,-0.666777 c 0.19255,-0.2536 1.45792,-1.76044 1.9714,-2.347607 0.9181,-1.049835 2.10885,-2.512084 2.07402,-2.546912 -0.0184,-0.01842 -1.81455,0.185989 -2.26904,0.258232 -0.15701,0.02495 -0.37942,0.09487 -0.49423,0.155363 -0.18049,0.09509 -1.61142,0.994803 -1.89499,1.191492 -0.0867,0.06011 -0.0955,0.09376 -0.0677,0.25835 0.0176,0.104079 0.0556,0.189241 0.0846,0.189241 0.0289,0 0.3557,-0.165367 0.72616,-0.367479 1.05284,-0.574402 1.2618,-0.653492 1.88946,-0.715159 0.29501,-0.02897 0.6021,-0.07928 0.68242,-0.111766 0.0803,-0.0325 0.14602,-0.04721 0.14602,-0.03275 0,0.03007 -0.43844,0.526581 -0.96601,1.093939 -0.55099,0.592571 -1.32462,1.475393 -1.74461,1.990856 -0.42278,0.518874 -0.45503,0.517148 -0.088,-0.0047 0.13393,-0.190408 0.17884,-0.286891 0.13907,-0.298749 -0.7416,-0.221071 -1.33211,-0.453057 -1.28166,-0.503507 0.0118,-0.01175 0.33215,0.0098 0.71201,0.04792 1.01118,0.101438 0.97372,0.106497 1.17878,-0.159339 0.0955,-0.123799 0.16394,-0.234773 0.1521,-0.246613 -0.0265,-0.02647 -0.86739,-0.135069 -1.36918,-0.176824 l -0.3695,-0.03073 -0.0217,-0.141452 c -0.0119,-0.0778 -0.0436,-0.306468 -0.0704,-0.50815 -0.0669,-0.502825 -0.24055,-1.200591 -0.40468,-1.626176 -0.31836,-0.825549 -1.2735,-2.120218 -2.08716,-2.829101 -0.1246,-0.108558 -0.32264,-0.295567 -0.44007,-0.415573 -0.35571,-0.363519 -1.10843,-0.670788 -1.64324,-0.670788 h -0.24283 l 0.0784,0.123559 c 0.15823,0.249426 0.32256,0.38376 0.70611,0.577213 0.21573,0.108808 0.41041,0.197836 0.43262,0.197836 0.0222,0 0.0657,-0.06109 0.0966,-0.135757 0.0908,-0.219312 0.13251,-0.198655 0.10294,0.05103 l -0.0275,0.232684 0.12048,-0.02303 c 0.10046,-0.01921 0.11622,-0.0096 0.0948,0.05785 -0.0193,0.06059 0.0397,0.128713 0.23477,0.271538 0.66181,0.484483 1.13691,1.001709 1.58432,1.724806 0.70787,1.144024 0.83251,1.554684 0.79775,2.628422 -0.0178,0.548787 -0.0463,0.785318 -0.13475,1.115778 l -0.11221,0.419362 0.20839,0.08687 c 0.35074,0.146215 0.55997,0.270219 0.74207,0.439783 0.21327,0.1986 0.50565,0.636227 0.54512,0.81593 0.016,0.07293 0.0454,0.132605 0.0652,0.132605 0.0199,0 0.0936,-0.07582 0.16395,-0.168492 z M 100.32133,85.8313 c 0.0555,-0.143069 0.10087,-0.276395 0.10087,-0.296283 0,-0.0199 -0.35033,-0.403243 -0.778506,-0.851903 -1.405589,-1.472819 -2.63308,-2.828253 -2.674894,-2.953687 -0.0094,-0.02816 0.02988,-0.02018 0.08962,0.0182 0.0585,0.03757 0.324779,0.131473 0.591767,0.208682 0.70911,0.205053 1.106423,0.359882 1.959887,0.763742 0.419646,0.198573 0.784146,0.361043 0.810016,0.361043 0.0259,0 0.047,-0.08861 0.047,-0.196912 0,-0.192424 -0.006,-0.200998 -0.28081,-0.376562 -1.240278,-0.793477 -1.612739,-0.975706 -2.397179,-1.172826 -0.67068,-0.16853 -2.260997,-0.473618 -2.294446,-0.440166 -0.01122,0.01123 0.03708,0.08821 0.107327,0.171115 0.982524,1.15979 1.374372,1.599518 2.416487,2.711769 0.347298,0.370675 0.972281,1.042944 1.388855,1.49393 0.41658,0.450988 0.769946,0.819978 0.785256,0.819978 0.0153,0 0.0732,-0.117055 0.12871,-0.260121 z m 5.72042,-0.0919 c 0.28601,-0.09933 0.63038,-0.272052 0.5483,-0.275012 -0.0302,-0.0011 -0.21221,0.06115 -0.40437,0.138329 -0.27087,0.108785 -0.44131,0.145424 -0.75846,0.163038 -0.50403,0.02798 -0.70452,-0.03116 -1.27833,-0.377071 -0.22566,-0.136036 -0.41899,-0.238634 -0.42963,-0.227992 -0.0106,0.01065 0.13784,0.122035 0.32995,0.247541 0.33316,0.217632 0.67316,0.377261 0.9128,0.428542 0.21058,0.04507 0.83056,-0.01082 1.07974,-0.09737 z m 4.04696,0.03882 c 0.26922,-0.08349 1.15355,-0.608512 1.10565,-0.656414 -0.0346,-0.03455 -0.25572,0.07312 -0.54296,0.264345 -0.70058,0.466424 -1.04498,0.513791 -1.91014,0.262696 -0.58512,-0.169819 -0.72383,-0.162744 -0.20076,0.01024 0.7041,0.232854 1.08662,0.262289 1.54821,0.119137 z m -4.41514,-0.09379 c 0.21109,-0.04867 0.76816,-0.274747 0.7685,-0.311893 1.7e-4,-0.02375 -0.14415,-0.112984 -0.52132,-0.32216 l -0.23007,-0.127593 -0.029,0.218553 c -0.0166,0.124988 -0.0645,0.250696 -0.11196,0.293632 -0.20457,0.185137 -0.58731,0.175134 -0.73236,-0.01912 -0.046,-0.06158 -0.0962,-0.218856 -0.11172,-0.349507 -0.0215,-0.182032 -0.0433,-0.231715 -0.0932,-0.21259 -0.0358,0.01373 -0.11877,0.03776 -0.18442,0.05343 -0.0657,0.01567 -0.14447,0.04822 -0.17513,0.07235 -0.0307,0.02414 -0.12678,0.06831 -0.21362,0.09816 l -0.15788,0.05428 0.32595,0.204439 c 0.38535,0.241699 0.50589,0.306136 0.6603,0.352993 0.1657,0.05028 0.5773,0.04775 0.80589,-0.0049 z m 4.35392,-0.02202 c 0.18403,-0.07665 0.81703,-0.477079 0.81796,-0.517433 6e-4,-0.04034 -0.3016,-0.173587 -0.49047,-0.216022 l -0.17256,-0.03877 -0.0227,0.201538 c -0.0278,0.247054 -0.174,0.407755 -0.40492,0.445225 -0.30417,0.04936 -0.57119,-0.162 -0.57119,-0.452152 0,-0.06414 -0.014,-0.116625 -0.0311,-0.116625 -0.0461,0 -0.63455,0.354571 -0.6619,0.398821 -0.0242,0.03917 0.41432,0.237832 0.69299,0.313939 0.24559,0.06708 0.66022,0.05798 0.84389,-0.01853 z m -8.80892,-0.83818 c 0.16743,-0.07715 0.30787,-0.142115 0.31208,-0.144366 0.004,-0.0021 -0.0412,-0.2062 -0.101,-0.453221 -0.11919,-0.492613 -0.14609,-1.206995 -0.0643,-1.706751 0.10435,-0.637285 0.63798,-1.90729 1.08572,-2.58392 0.24704,-0.373335 0.93208,-1.054601 1.26502,-1.258047 0.24618,-0.150431 0.25644,-0.164082 0.23625,-0.314513 l -0.0211,-0.157256 0.1019,0.125282 c 0.13758,0.169157 0.27316,0.126209 0.23918,-0.07577 -0.0129,-0.07666 -0.0374,-0.174757 -0.0545,-0.218004 -0.0171,-0.04324 -0.0112,-0.07863 0.0132,-0.07863 0.0244,0 0.0694,0.06065 0.10012,0.13479 0.0307,0.07414 0.083,0.134791 0.11617,0.134791 0.12723,0 1.04529,-0.499741 1.11583,-0.607389 0.0718,-0.109521 0.0708,-0.111465 -0.0515,-0.109895 -0.0685,7.8e-4 -0.24591,0.03111 -0.39418,0.06718 -0.16594,0.04037 -0.36459,0.05558 -0.5167,0.03958 -0.23197,-0.0244 -0.26272,-0.01543 -0.50171,0.146241 -1.71964,1.163378 -2.99472,3.067892 -3.40638,5.08797 -0.0499,0.2448 -0.0907,0.515558 -0.0907,0.60169 v 0.1566 l -0.787028,0.03278 c -0.432864,0.01803 -0.798792,0.05183 -0.81318,0.07511 -0.0144,0.02329 0.130356,0.192851 0.321642,0.376832 l 0.347796,0.334515 0.62023,-0.01165 c 0.41024,-0.0077 0.63721,0.0053 0.67039,0.03835 0.0541,0.05394 -0.0765,0.07798 -0.73053,0.134495 -0.19152,0.01655 -0.348206,0.04345 -0.348206,0.05979 0,0.01634 0.134866,0.193321 0.299716,0.393301 l 0.2997,0.363601 0.21586,-0.221608 c 0.1344,-0.137988 0.33071,-0.274538 0.52026,-0.361882 z m 5.37286,0.22892 c -0.28194,-0.48513 -1.07826,-0.893729 -1.74181,-0.893729 -0.52566,0 -1.92025,0.362903 -1.94798,0.506909 -0.0275,0.142837 0.20493,0.141634 0.81893,-0.0043 1.13426,-0.269475 1.44099,-0.280664 1.99352,-0.07271 0.29534,0.111148 0.70088,0.358639 0.84052,0.512939 0.11719,0.129489 0.13039,0.111854 0.0368,-0.04918 z m 1.88492,-0.06768 c 0.2129,-0.19235 0.52982,-0.344682 0.93191,-0.44795 0.36681,-0.09421 0.86231,-0.06404 1.52762,0.09301 0.58178,0.137335 0.76815,0.142456 0.8753,0.02407 0.0966,-0.106699 0.11205,-0.09923 -0.47092,-0.227107 -1.08728,-0.238494 -1.64352,-0.258606 -2.08926,-0.07555 -0.30087,0.123563 -0.74207,0.437451 -0.89299,0.635327 -0.15672,0.205465 -0.1103,0.204763 0.11834,-0.0017 z m -0.40324,-1.958139 c 0.22527,-0.198592 0.44598,-0.383805 0.49046,-0.411583 0.11947,-0.07461 0.0986,-0.118748 -0.0562,-0.118748 -0.18149,0 -0.32842,0.08045 -0.69364,0.379821 -0.16722,0.137064 -0.31746,0.249203 -0.33388,0.249203 -0.0164,0 -0.12001,-0.09201 -0.23018,-0.204464 -0.30552,-0.311855 -0.59923,-0.486287 -0.73987,-0.439406 -0.11161,0.0372 -0.10426,0.04774 0.27713,0.397204 0.61297,0.561667 0.68419,0.611986 0.78778,0.556551 0.0488,-0.02611 0.27306,-0.209982 0.49834,-0.408578 z m -8.953888,0.278414 c 0.111198,-0.04666 0.172548,-0.08597 0.136332,-0.08735 -0.03624,-0.0014 -0.161694,-0.09691 -0.278838,-0.21229 l -0.212976,-0.209777 -0.249095,0.05575 c -0.13701,0.03067 -0.249102,0.06876 -0.249102,0.08468 0,0.01591 0.09528,0.125665 0.211734,0.243896 0.238385,0.242028 0.323669,0.25865 0.641945,0.125101 z m 17.026998,-0.06576 0.15083,-0.155619 -0.12248,-0.04657 c -0.21917,-0.08333 -0.36219,-0.05379 -0.58679,0.121188 -0.20607,0.160557 -0.21073,0.169042 -0.10846,0.197709 0.0587,0.01648 0.19893,0.03197 0.31146,0.03444 0.17733,0.0039 0.22471,-0.01627 0.35544,-0.151141 z m -9.47871,0.04114 c 0,-0.04064 -0.23314,-0.235108 -0.46029,-0.383929 l -0.21317,-0.139663 -1.58404,0.04966 c -0.87122,0.02731 -1.7003,0.04957 -1.84239,0.04945 -0.23821,-1.59e-4 -0.2583,0.0076 -0.25774,0.100891 3.2e-4,0.0556 0.0115,0.141529 0.0247,0.190952 0.0237,0.08835 0.056,0.08962 1.92016,0.07567 1.08276,-0.0081 1.99239,0.0042 2.12068,0.02865 0.29934,0.05711 0.29205,0.05641 0.29205,0.0283 z m 3.8726,-0.03658 1.82827,0.0062 0.0476,-0.136459 c 0.0262,-0.07505 0.0476,-0.15123 0.0476,-0.169282 0,-0.03412 -0.30999,-0.05312 -2.27058,-0.139279 -1.32449,-0.05821 -1.25661,-0.0703 -1.66082,0.295914 l -0.22466,0.203535 0.20219,-0.03341 c 0.11121,-0.01838 1.02491,-0.03063 2.03046,-0.0272 z m 4.9681,-0.13977 c 0.16316,-0.151706 0.1647,-0.156046 0.0555,-0.156268 -0.13673,-3.18e-4 -0.49424,0.156332 -0.49424,0.216506 0,0.02386 0.0253,0.05358 0.0562,0.06605 0.12957,0.05228 0.22405,0.0211 0.38257,-0.126284 z m -16.0092,0.05897 c 0.06295,-0.02869 0.114444,-0.06801 0.114444,-0.08741 0,-0.05512 -0.670782,-0.372853 -0.708096,-0.33541 -0.02454,0.02459 0.412104,0.464434 0.470094,0.473527 0.0048,6.6e-4 0.06062,-0.02202 0.123558,-0.05071 z m 8.17346,-0.38593 c 0.0592,-0.09267 0.0988,-0.183651 0.0879,-0.202187 -0.0109,-0.01852 -0.12982,-0.0337 -0.26427,-0.0337 -0.1815,0 -0.24447,0.01648 -0.24447,0.06395 0,0.07424 0.21341,0.340425 0.27292,0.340425 0.0221,0 0.0887,-0.07582 0.14795,-0.168489 z m -9.283369,-0.07873 c 0.129738,-0.04861 0.235883,-0.102285 0.235883,-0.119275 0,-0.01701 -0.197129,-0.106188 -0.438071,-0.198211 -0.240936,-0.09202 -0.506256,-0.19469 -0.589602,-0.228147 -0.1419,-0.05697 -0.14778,-0.05584 -0.09254,0.01778 0.110298,0.147019 0.601452,0.640976 0.625002,0.628562 0.0129,-0.0068 0.129594,-0.05212 0.259326,-0.100731 z m 18.405429,0.0011 c 0.071,-0.108447 0.0697,-0.112081 -0.051,-0.138546 -0.0682,-0.01492 -0.14663,-0.03395 -0.17434,-0.04225 -0.0602,-0.01803 -0.74723,0.06386 -0.77585,0.09248 -0.0415,0.04148 0.0498,0.08324 0.29909,0.136812 0.4333,0.09311 0.61766,0.08038 0.7021,-0.04849 z m -3.90175,-0.117208 c 0.0166,-0.02685 0.0127,-0.06626 -0.009,-0.08755 -0.0213,-0.02128 -0.55435,-0.08043 -1.1845,-0.13142 -0.63015,-0.05099 -1.51976,-0.127849 -1.97693,-0.170801 -0.99314,-0.0933 -3.87053,-0.102852 -4.98726,-0.01655 -0.92944,0.07182 -2.50971,0.227213 -2.63796,0.259401 -0.16095,0.0404 -0.12775,0.150849 0.0454,0.150849 0.23555,0 3.21264,-0.132172 4.05285,-0.179927 1.05959,-0.06023 1.84693,-0.05443 2.74075,0.02018 0.42009,0.03508 1.26928,0.08649 1.88707,0.114277 0.61779,0.02777 1.19402,0.05609 1.28051,0.0629 0.41714,0.03285 0.76095,0.02357 0.7887,-0.02135 z m 2.56215,-1.013879 c 0.60633,-0.451121 1.23117,-1.176164 2.90603,-3.372026 0.0681,-0.08934 0.11723,-0.169113 0.10907,-0.177266 -0.0362,-0.03622 -1.89694,0.458534 -2.79372,0.742821 -0.5433,0.172229 -0.99475,0.306205 -1.00323,0.297725 -0.008,-0.0085 0.21051,-0.709602 0.48666,-1.558049 0.27614,-0.848448 0.51297,-1.589589 0.52628,-1.646984 0.0221,-0.09553 -0.0266,-0.07892 -0.57699,0.196575 -0.7412,0.371013 -1.15806,0.608933 -1.88213,1.074224 -1.03957,0.668029 -1.66406,1.131247 -1.66121,1.232219 3.1e-4,0.01516 0.0505,0.07471 0.11122,0.132315 l 0.11044,0.104745 0.70876,-0.468937 c 0.77971,-0.515885 1.39831,-0.892927 2.00325,-1.221009 l 0.39589,-0.214704 -0.0658,0.15116 c -0.43104,0.99058 -1.26336,2.824881 -1.33272,2.937099 -0.0986,0.159518 -0.23549,0.520416 -0.20788,0.548023 0.01,0.0097 0.10827,-0.04365 0.21914,-0.118473 0.35844,-0.241913 1.75962,-0.779185 3.09623,-1.187232 0.28026,-0.08556 0.54575,-0.169963 0.58998,-0.187563 0.0442,-0.0176 -0.16035,0.269389 -0.45461,0.637759 -0.53509,0.669851 -1.12739,1.323315 -1.84195,2.032186 l -0.38008,0.377048 -0.085,-0.174861 c -0.14938,-0.307499 -0.79109,-0.896089 -0.88,-0.807172 -0.0142,0.01419 0.0469,0.193275 0.13582,0.397955 0.13357,0.307533 0.2312,0.605617 0.37475,1.144143 0.0157,0.05875 0.80911,-0.438235 1.39174,-0.871721 z m -14.75974,0.444933 c 0.0801,-0.240939 0.23339,-0.632536 0.34068,-0.870215 0.10729,-0.237673 0.19507,-0.455767 0.19507,-0.484651 0,-0.06929 -0.73652,-0.543515 -1.1906,-0.766594 -0.423652,-0.208136 -2.270013,-0.959028 -2.295489,-0.933552 -0.0097,0.0097 0.163788,0.230168 0.385434,0.490029 0.454764,0.533171 0.483665,0.550369 1.268369,0.754691 0.42528,0.110736 1.004536,0.298746 1.606376,0.521381 0.0395,0.0146 0.0483,0.03704 0.0217,0.05575 -0.0244,0.01722 -0.20581,0.21972 -0.40311,0.450041 -0.23176,0.270572 -0.35372,0.449502 -0.34462,0.505633 0.0136,0.08395 0.009,0.08368 -0.14682,-0.0081 -0.20548,-0.121188 -1.760607,-1.815172 -2.302719,-2.508281 l -0.413592,-0.528791 0.233868,0.07882 c 0.128628,0.04335 0.604764,0.212258 1.058081,0.375347 0.861846,0.310069 1.581912,0.533526 1.614432,0.501006 0.0212,-0.02122 -0.25593,-0.790166 -0.30557,-0.847814 -0.01728,-0.02007 -0.765676,-0.20685 -1.663071,-0.415061 -0.897402,-0.208212 -1.779917,-0.419247 -1.961159,-0.46897 -0.181236,-0.04972 -0.33963,-0.0904 -0.35199,-0.0904 -0.130026,0 2.547761,3.154186 3.293872,3.87987 0.20964,0.203906 1.046428,0.740501 1.162758,0.745636 0.0289,0.0014 0.11798,-0.194817 0.19807,-0.435754 z m 12.21654,0.08721 c -0.004,-0.603661 -0.3459,-0.997046 -0.86654,-0.997046 -0.42525,0 -0.79479,0.358427 -0.79479,0.770881 0,0.09496 0.009,0.172657 0.0209,0.172657 0.0853,0 1.04728,0.147472 1.28206,0.196542 0.16063,0.03356 0.30721,0.05243 0.32575,0.04192 0.0185,-0.01051 0.0332,-0.09374 0.0326,-0.184954 z m -1.02108,-0.128195 c -0.0773,-0.03119 -0.0703,-0.154632 0.0155,-0.277325 0.0971,-0.138697 0.30382,-0.119639 0.32502,0.02996 0.0262,0.184509 -0.16047,0.320034 -0.34059,0.247353 z m -9.04858,0.117352 c 0.48068,-0.07357 0.69751,-0.125055 0.71463,-0.169663 0.034,-0.08854 -0.0677,-0.359745 -0.20218,-0.53955 -0.17395,-0.232488 -0.35509,-0.321558 -0.65434,-0.321751 -0.29342,-1.59e-4 -0.44213,0.06235 -0.63803,0.268327 -0.12457,0.130979 -0.13601,0.170916 -0.15087,0.526522 l -0.0161,0.384794 0.1284,-0.02152 c 0.0706,-0.01183 0.43893,-0.06906 0.81847,-0.127151 z m -0.23998,-0.205571 c -0.15504,-0.155034 0.0115,-0.460762 0.19018,-0.349152 0.12214,0.07629 0.19246,0.245569 0.14153,0.340726 -0.0542,0.101239 -0.23433,0.105816 -0.33171,0.0084 z m 8.47955,-0.140376 c 0.0129,-0.142091 0.0677,-0.406972 0.12181,-0.588626 0.11779,-0.395422 0.36368,-0.69572 0.63665,-0.777503 0.0958,-0.02869 0.17412,-0.06815 0.17412,-0.08769 0,-0.04168 -0.50739,-0.289425 -0.6813,-0.332661 -0.11315,-0.02812 -0.12869,-0.01073 -0.28551,0.319732 -0.19208,0.40476 -0.46337,1.207792 -0.50114,1.483396 -0.025,0.182027 -0.0208,0.1905 0.10318,0.20898 0.071,0.01059 0.19208,0.0223 0.26896,0.026 0.13849,0.0067 0.14001,0.0043 0.16323,-0.25162 z m -6.8347,0.08479 c 0.0565,-0.0575 -0.0922,-0.588672 -0.26789,-0.956754 -0.18638,-0.39049 -0.51383,-0.854226 -0.70188,-0.993975 -0.10632,-0.07901 -0.11039,-0.07768 -0.34317,0.112329 -0.12958,0.105756 -0.24273,0.213883 -0.25146,0.240285 -0.009,0.02639 0.0843,0.09494 0.20682,0.152306 0.44272,0.207361 0.68121,0.57166 0.77145,1.178409 l 0.0499,0.335318 0.25407,-0.01966 c 0.13973,-0.01079 0.26672,-0.03253 0.28219,-0.04827 z m 6.1478,-0.286974 c 0.0719,-0.40834 0.36123,-1.42513 0.48491,-1.704012 0.11287,-0.254546 0.13201,-0.232091 -0.50539,-0.593374 -0.3814,-0.216179 -0.45147,-0.242616 -0.46361,-0.174912 -0.023,0.128221 -0.2709,1.008929 -0.50781,1.803992 -0.12058,0.404674 -0.21924,0.773668 -0.21924,0.81998 0,0.0717 0.0352,0.08421 0.23737,0.08421 h 0.23737 l 0.0572,-0.303278 c 0.0314,-0.166802 0.16222,-0.690631 0.29063,-1.164061 l 0.23347,-0.860779 0.12349,0.0647 c 0.14364,0.07526 0.14581,0.0873 0.055,0.304765 -0.10124,0.2423 -0.51555,1.757901 -0.51555,1.885944 0,0.126227 0.0479,0.154057 0.27363,0.159021 l 0.16129,0.0035 z m -5.40162,0.217311 c 0.0107,-0.01013 -0.0834,-0.350093 -0.36179,-1.306872 -0.0863,-0.296538 -0.16887,-0.599817 -0.18352,-0.673956 -0.0315,-0.159087 0.034,-0.29415 0.1071,-0.221033 0.0578,0.05778 0.36006,1.026038 0.52839,1.692502 l 0.12198,0.483 h 0.23688 c 0.13029,0 0.23688,-0.01757 0.23688,-0.03908 0,-0.123734 -0.5024,-1.491136 -0.82754,-2.252369 -0.11794,-0.276104 -0.23083,-0.477883 -0.2722,-0.486511 -0.0637,-0.01327 -0.6861,0.3099 -0.89295,0.463676 -0.0803,0.05966 -0.0797,0.06544 0.0151,0.165885 0.0541,0.05724 0.13589,0.17695 0.18183,0.266028 0.14245,0.276193 0.4378,1.181207 0.51912,1.590658 l 0.0775,0.390175 0.25134,-0.03109 c 0.13824,-0.01712 0.25607,-0.03556 0.26184,-0.041 z m 2.00014,-0.100128 0.16848,-0.02784 v -0.234996 -0.234996 l -0.28035,-0.0254 c -0.1542,-0.01397 -0.28789,-0.01789 -0.29711,-0.0087 -0.009,0.0092 -0.0423,0.139159 -0.0735,0.288761 l -0.0568,0.272009 0.18539,-3.17e-4 c 0.10196,-3.18e-4 0.2612,-0.01302 0.35387,-0.02834 z m 1.35718,-0.274441 c -0.0173,-0.166801 -0.0341,-0.305671 -0.0373,-0.308592 -0.003,-0.0028 -0.14026,0.01532 -0.30472,0.04049 -0.28188,0.04318 -0.30056,0.05346 -0.32575,0.179418 -0.0712,0.355911 -0.0502,0.374454 0.43739,0.385845 l 0.26192,0.0061 z m -8.13335,-0.179719 0.16636,-0.213418 -0.21209,-0.03589 c -0.11665,-0.01972 -0.302762,-0.02985 -0.413576,-0.02248 l -0.201492,0.01342 0.212466,0.235882 c 0.116856,0.129736 0.228102,0.235886 0.247222,0.235886 0.0191,0 0.10962,-0.09604 0.20111,-0.213421 z m 14.87871,-0.363534 c -0.092,-0.01641 -0.78815,0.07618 -0.8472,0.112676 -0.0195,0.01204 0.0487,0.122323 0.1515,0.245089 l 0.18688,0.223213 0.29741,-0.282827 c 0.23937,-0.227631 0.28063,-0.285819 0.21141,-0.298151 z m -7.17433,-0.137227 c 0.788,-0.245251 1.34403,-0.913509 1.3877,-1.667754 0.0655,-1.132018 -0.63825,-1.943014 -1.77807,-2.04895 -0.55024,-0.05114 -1.2975,0.225186 -1.62978,0.602668 -0.66667,0.757381 -0.63931,1.796452 0.0674,2.559783 0.51019,0.551073 1.27003,0.76674 1.95275,0.554253 z m -0.99794,-0.518867 c -1.04411,-0.372427 -1.24056,-1.829796 -0.32763,-2.430491 0.9337,-0.614359 2.18131,0.02123 2.1829,1.112073 10e-4,0.813657 -0.5838,1.387224 -1.4088,1.381322 -0.15161,-0.0011 -0.35253,-0.02939 -0.44647,-0.0629 z m 1.33624,-1.003282 c 0.14204,-0.41685 0.0601,-0.777135 -0.24433,-1.074807 -0.39956,-0.390642 -1.16922,-0.267235 -1.46334,0.234633 -0.12281,0.209564 -0.20853,0.599319 -0.11974,0.544443 0.0287,-0.01777 0.0604,0.02918 0.0786,0.11668 0.0606,0.290558 0.33749,0.663509 0.49224,0.662946 0.0254,-9.2e-5 -0.0196,-0.04023 -0.0999,-0.0892 -0.0803,-0.04897 -0.14602,-0.108937 -0.14602,-0.133267 0,-0.02433 0.071,0.004 0.15786,0.06289 0.35811,0.243024 0.76272,0.186988 1.10238,-0.152675 0.1791,-0.179099 0.20863,-0.195922 0.17194,-0.09793 -0.0244,0.06507 -0.10531,0.199187 -0.17986,0.298033 l -0.13556,0.17972 0.15774,-0.172778 c 0.0868,-0.09503 0.18932,-0.265435 0.2279,-0.378679 z m -1.12218,0.303491 c -0.34149,-0.104347 -0.51121,-0.500639 -0.3552,-0.829409 0.20394,-0.429763 0.85563,-0.45675 1.12438,-0.04657 0.29256,0.446489 -0.2294,1.040909 -0.76918,0.875972 z m 0.56237,-0.28175 c 0.24893,-0.254614 0.20758,-0.619936 -0.0874,-0.772501 -0.45572,-0.235655 -0.91502,0.185574 -0.69129,0.633979 0.16428,0.329261 0.52884,0.394112 0.77873,0.138522 z m 6.36262,1.314703 c 0.19547,-0.05014 0.64355,-0.141654 0.99572,-0.203365 0.35218,-0.06172 0.70786,-0.136953 0.79042,-0.167194 0.0951,-0.03483 0.29658,-0.218427 0.54961,-0.500772 0.47373,-0.528626 0.48061,-0.526735 -0.52577,-0.144794 -0.60699,0.230362 -2.25743,0.979625 -2.35094,1.067273 -0.0724,0.06782 0.16439,0.04544 0.54096,-0.05115 z m -12.57116,-0.20808 c 0.007,-0.04951 -0.0816,-0.351205 -0.19761,-0.670438 -0.43029,-1.183808 -0.92571,-2.855215 -0.86445,-2.916472 0.0188,-0.01879 0.0699,0.01928 1.28734,0.959061 1.0014,0.772998 1.18112,0.885113 1.30905,0.816643 0.21365,-0.11434 0.0767,-0.314627 -0.64283,-0.939916 -0.84038,-0.73034 -1.27383,-1.066105 -1.83021,-1.417752 -0.30654,-0.193739 -0.663496,-0.42034 -0.793234,-0.503558 -0.129738,-0.08322 -0.235884,-0.129779 -0.235884,-0.103472 0,0.172871 0.718148,2.877019 0.930188,3.502577 0.0628,0.18534 0.18594,0.495014 0.27359,0.688169 0.13648,0.300781 0.19497,0.376686 0.40742,0.528824 0.2641,0.189117 0.33525,0.200355 0.35663,0.05633 z m 11.96593,-0.826289 c 0.25545,-0.503989 1.01451,-2.129501 1.10717,-2.370966 0.0169,-0.0441 -0.11959,0.0093 -0.37032,0.144868 -0.72056,0.389602 -0.72719,0.395839 -0.80855,0.76112 -0.10085,0.45278 -0.32511,1.174283 -0.45799,1.473527 l -0.11253,0.253397 0.12316,0.186109 c 0.0677,0.102362 0.14333,0.179388 0.16797,0.171173 0.0247,-0.0082 0.18264,-0.286867 0.35109,-0.619228 z m -11.65471,0.271849 c 0.0324,-0.127229 -0.10608,-1.622023 -0.17262,-1.863012 -0.0356,-0.129115 -0.12314,-0.2144 -0.48494,-0.472706 -0.24279,-0.173344 -0.45371,-0.315171 -0.46871,-0.315171 -0.015,0 -0.0147,0.06571 6e-4,0.146025 0.0452,0.235907 0.71183,2.233198 0.84351,2.527328 0.11478,0.256372 0.12395,0.265179 0.18705,0.179722 0.0365,-0.04942 0.0792,-0.140407 0.095,-0.202186 z m 10.90173,-0.738033 c 0.0648,-0.195868 0.11223,-0.361633 0.10549,-0.368367 -0.0323,-0.03232 -0.67291,0.186944 -0.69208,0.236885 -0.0264,0.06876 0.39513,0.570063 0.43852,0.521528 0.0167,-0.01865 0.0833,-0.194178 0.14807,-0.390046 z m -9.37065,-0.931842 c 0.007,-0.06205 -0.0583,-0.560587 -0.14603,-1.10786 -0.0877,-0.547274 -0.15954,-1.019103 -0.15954,-1.048508 0,-0.03029 0.0438,-0.01411 0.1011,0.03728 0.0556,0.04991 0.28306,0.207218 0.50546,0.349577 0.22241,0.142358 0.44987,0.30065 0.50547,0.35176 0.064,0.05879 0.10109,0.07174 0.10109,0.03526 0,-0.06561 -0.0408,-0.113472 -0.62902,-0.737352 -1.10707,-1.174239 -1.07682,-1.146451 -1.07761,-0.989702 -0.002,0.317537 0.50403,2.868654 0.61591,3.107488 0.0787,0.167971 0.16318,0.168917 0.18317,0.002 z m 8.25612,-0.03921 c 0.10911,-0.07507 0.21616,-0.171105 0.23791,-0.213418 0.0515,-0.100285 0.11172,-3.064799 0.0622,-3.064799 -0.0495,0 -1.03133,1.003647 -1.2087,1.235584 -0.16851,0.220345 -0.30011,0.471183 -0.26541,0.505885 0.0375,0.03749 0.45193,-0.259367 0.79171,-0.567113 l 0.29414,-0.266419 -0.0562,0.478336 c -0.0697,0.592491 -0.13102,2.028431 -0.0867,2.028431 0.0179,0 0.12194,-0.06142 0.23105,-0.136487 z m -7.73325,-0.309751 c 0.0683,-0.07541 0.0732,-0.128433 0.0376,-0.404372 l -0.041,-0.317576 h 0.12665 c 0.0697,0 0.12651,-0.01516 0.12635,-0.0337 -3.2e-4,-0.04721 -0.62943,-0.38495 -0.66,-0.354374 -0.0335,0.03344 0.2573,1.196817 0.29912,1.196817 0.018,0 0.0681,-0.03905 0.11129,-0.08679 z m 7.16847,-0.575925 c 3.1e-4,-0.302719 -0.0103,-0.550396 -0.0236,-0.550396 -0.0629,0 -1.23553,0.599484 -1.28188,0.655337 -0.0438,0.05278 -0.0253,0.06355 0.1091,0.06355 0.089,0 0.32369,-0.03261 0.5215,-0.07247 0.19781,-0.03986 0.3903,-0.06071 0.42775,-0.04634 0.0422,0.01622 0.0681,0.08377 0.0681,0.178091 0,0.08358 0.0229,0.217583 0.0508,0.297787 0.0852,0.244305 0.12745,0.07095 0.1282,-0.525557 z m -5.3465,0.04952 c 0.16138,-0.03228 0.33582,-0.278759 1.16016,-1.639301 0.56525,-0.932933 0.52826,-0.887575 0.63476,-0.778456 0.0472,0.04841 0.24592,0.340758 0.44149,0.649653 0.19558,0.308895 0.51553,0.808799 0.71102,1.110895 l 0.35543,0.549266 0.21342,0.0011 c 0.11737,6.6e-4 0.21342,-0.01629 0.21342,-0.03757 0,-0.08815 -0.94982,-1.704706 -1.4496,-2.467175 -0.46112,-0.703464 -0.54788,-0.812915 -0.60612,-0.764578 -0.26505,0.219964 -1.98801,3.131507 -1.98801,3.359419 0,0.05273 0.10581,0.05836 0.31403,0.01672 z m -0.0758,-0.927093 c 0.25886,-0.501201 0.57694,-1.092595 0.70683,-1.314213 0.33931,-0.578915 1.04042,-1.638523 1.08416,-1.638523 0.0789,0 0.96536,1.409217 1.55146,2.466316 0.41205,0.743161 0.62773,1.083178 0.6871,1.083178 0.19338,0 -0.24949,-1.16353 -0.99106,-2.603757 -0.31064,-0.603318 -1.23118,-2.069403 -1.29895,-2.06878 -0.0128,1.18e-4 -0.14429,0.187141 -0.29209,0.415606 -0.34275,0.529755 -0.83779,1.494414 -1.18754,2.314117 -0.37024,0.867718 -0.83362,2.257326 -0.75274,2.257326 0.0122,0 0.23397,-0.410071 0.49283,-0.91127 z m -3.41078,0.697852 c 0.0514,-0.257023 0.11345,-1.003662 0.14295,-1.718586 0.0168,-0.407741 0.0339,-0.745538 0.038,-0.750658 0.004,-0.0051 0.14809,0.123946 0.32007,0.286815 1.02407,0.969815 1.60311,1.464163 1.64332,1.402963 0.0227,-0.03464 0.0839,-0.130042 0.13595,-0.21201 l 0.0946,-0.149031 -0.11003,-0.12055 c -0.44125,-0.483427 -1.80083,-1.917261 -2.00222,-2.111566 -0.1361,-0.131304 -0.26367,-0.222288 -0.28352,-0.202187 -0.0849,0.08606 -0.67007,2.366127 -0.74212,2.891806 l -0.0279,0.203738 0.34423,0.301412 c 0.18932,0.165776 0.36174,0.301412 0.38316,0.301412 0.0214,0 0.05,-0.0556 0.0636,-0.123558 z m 10.88929,-0.11326 c 0.25745,-0.133322 0.32567,-0.189759 0.32541,-0.269214 -10e-4,-0.331455 -0.8528,-3.622863 -0.97286,-3.759639 -0.0365,-0.04155 -0.49899,0.453655 -1.10977,1.188183 -0.87737,1.055146 -0.94537,1.14149 -1.2462,1.582353 -0.27483,0.402748 -0.32489,0.580969 -0.19376,0.6898 0.0785,0.06511 0.0834,0.06035 1.53546,-1.463645 0.48044,-0.504268 0.69589,-0.701818 0.72168,-0.661717 0.0327,0.0509 0.13347,0.566578 0.46105,2.359753 0.0532,0.291417 0.1095,0.523765 0.12502,0.516329 0.0155,-0.0074 0.17481,-0.08943 0.35397,-0.182203 z m -5.02108,-0.31914 c 1.5e-4,-0.04885 -0.56831,-0.911757 -0.62285,-0.945462 -0.0327,-0.02022 -0.67999,0.897562 -0.68002,0.964205 0,0.01129 0.29311,0.02051 0.65137,0.02051 0.35826,0 0.65143,-0.01766 0.6515,-0.03926 z m -2.60735,-2.072518 c 0.18984,-0.715847 0.43449,-1.330484 0.76902,-1.932003 0.25961,-0.466811 0.8568,-1.335386 0.99969,-1.453973 0.0543,-0.04505 0.11725,0.0056 0.36724,0.295427 0.63819,0.739872 1.14152,1.536516 1.48424,2.349199 0.2253,0.534254 0.46563,1.228598 0.44211,1.277342 -0.0128,0.02645 0.0396,-0.02266 0.1164,-0.109154 0.0768,-0.08649 0.15191,-0.205839 0.16693,-0.26522 0.0574,-0.226771 -0.30578,-1.450347 -0.63183,-2.12893 -0.31034,-0.645893 -1.00665,-1.645079 -1.68126,-2.412592 -0.21382,-0.243277 -0.18907,-0.257041 -0.68075,0.378431 -0.89329,1.154518 -1.34387,2.064569 -1.65863,3.349984 -0.2215,0.904582 -0.22161,0.907032 -0.0452,1.117112 0.0967,0.115229 0.16154,0.160841 0.18011,0.126767 0.016,-0.02927 0.0933,-0.29585 0.17197,-0.59239 z"
       id="path1" /></g></svg>
